<svg width="32" height="32" viewBox="0 0 32 32" fill="none" xmlns="http://www.w3.org/2000/svg">
<rect width="32" height="32" rx="4" fill="white"/>
<path d="M8.18283 11.416L6.43983 16.771H9.88383L8.18283 11.416ZM2.28183 22V20.866L3.98283 20.614L8.24583 8.182H10.4088L14.7138 20.761L15.9948 20.908V22H9.50583V20.908L11.1228 20.698L10.2618 17.989H6.04083L5.20083 20.614L6.79683 20.866V22H2.28183ZM22.2292 9.421H21.3892C21.3752 10.289 21.3612 11.157 21.3472 12.025C21.3472 12.879 21.3472 13.698 21.3472 14.482H22.1452C22.8452 14.482 23.3912 14.363 23.7832 14.125C24.1752 13.887 24.4552 13.572 24.6232 13.18C24.7912 12.788 24.8752 12.368 24.8752 11.92C24.8752 10.254 23.9932 9.421 22.2292 9.421ZM16.2652 9.337V8.203H23.0902C24.7422 8.203 26.0092 8.511 26.8912 9.127C27.7872 9.743 28.2352 10.597 28.2352 11.689C28.2352 12.151 28.1162 12.613 27.8782 13.075C27.6402 13.523 27.2482 13.922 26.7022 14.272C26.1562 14.608 25.4142 14.853 24.4762 15.007C25.2742 15.105 25.8972 15.301 26.3452 15.595C26.7932 15.875 27.1292 16.246 27.3532 16.708C27.5772 17.156 27.7382 17.709 27.8362 18.367L28.2352 20.698L29.8312 20.866V22C29.4952 22.07 29.2152 22.126 28.9912 22.168C28.7672 22.224 28.5432 22.259 28.3192 22.273C28.1092 22.287 27.8432 22.294 27.5212 22.294C26.6252 22.294 25.9182 22.14 25.4002 21.832C24.8962 21.524 24.5882 20.964 24.4762 20.152L24.0982 17.716C24.0002 17.016 23.7972 16.498 23.4892 16.162C23.1952 15.826 22.7332 15.658 22.1032 15.658H21.3472C21.3472 16.554 21.3472 17.415 21.3472 18.241C21.3612 19.067 21.3752 19.886 21.3892 20.698L23.0272 20.866V22H16.2652V20.866L17.8402 20.698C17.8682 19.844 17.8822 18.983 17.8822 18.115C17.8822 17.247 17.8822 16.372 17.8822 15.49V14.713C17.8822 13.845 17.8822 12.977 17.8822 12.109C17.8822 11.227 17.8682 10.359 17.8402 9.505L16.2652 9.337Z" fill="#030303"/>
</svg>
