<svg width="3840" height="2160" viewBox="0 0 3840 2160" fill="none" xmlns="http://www.w3.org/2000/svg">
<rect width="3840" height="2160" fill="url(#paint0_linear_110_3)"/>
<path d="M432.977 1074.42C432.977 1093.59 432.977 1112.1 432.977 1129.95C433.24 1147.81 433.503 1165.41 433.766 1182.74H464.952C495.479 1182.74 518.901 1172.89 535.217 1153.19C551.533 1133.24 559.692 1105.4 559.692 1069.69C559.692 1032.66 551.665 1004.43 535.612 985.001C519.558 965.569 497.19 955.852 468.504 955.852H433.766C433.503 972.659 433.24 989.858 432.977 1007.45C432.977 1024.78 432.977 1042.25 432.977 1059.84V1074.42ZM358.369 953.883V937.733H474.82C500.084 937.733 522.322 942.854 541.533 953.095C560.744 963.073 575.745 977.91 586.535 997.605C597.324 1017.04 602.719 1041.07 602.719 1069.69C602.719 1098.05 596.798 1122.08 584.956 1141.77C573.113 1161.2 556.928 1176.04 536.401 1186.28C516.138 1196.26 493.11 1201.25 467.32 1201.25H358.369V1185.1L394.686 1180.77C395.212 1163.96 395.476 1146.89 395.476 1129.56C395.476 1111.97 395.476 1093.59 395.476 1074.42V1059.84C395.476 1042.77 395.476 1025.83 395.476 1009.03C395.476 991.96 395.212 975.022 394.686 958.216L358.369 953.883ZM785.473 1205.19C775.999 1205.19 768.104 1202.43 761.788 1196.92C755.472 1191.4 751.525 1184.05 749.946 1174.86C739.156 1185.36 729.682 1193.24 721.524 1198.49C713.366 1203.74 703.497 1206.37 691.918 1206.37C677.443 1206.37 664.943 1202.3 654.416 1194.16C644.153 1185.76 639.021 1173.41 639.021 1157.13C639.021 1149.52 640.732 1142.43 644.153 1135.86C647.837 1129.3 654.416 1122.86 663.89 1116.56C673.364 1110.26 686.917 1103.96 704.55 1097.66C710.602 1095.55 717.576 1093.32 725.471 1090.96C733.366 1088.6 741.261 1086.49 749.156 1084.66V1074.81C749.156 1055.64 746.261 1042.9 740.472 1036.6C734.682 1030.3 725.208 1027.15 712.05 1027.15C709.155 1027.15 705.865 1027.28 702.181 1027.54C698.76 1027.8 694.944 1028.46 690.733 1029.51L683.233 1055.11C679.548 1067.72 672.706 1074.02 662.706 1074.02C651.653 1074.02 645.469 1068.64 644.153 1057.87C647.837 1042.9 656.522 1031.09 670.206 1022.42C684.154 1013.49 701.128 1009.03 721.129 1009.03C741.919 1009.03 757.314 1014.28 767.315 1024.78C777.315 1035.03 782.315 1052.62 782.315 1077.57V1161.47C782.315 1169.87 783.631 1175.91 786.263 1179.59C788.894 1183 792.316 1184.71 796.526 1184.71C799.947 1184.71 802.842 1183.92 805.211 1182.34C807.579 1180.77 809.816 1178.67 811.922 1176.04L819.817 1184.71C815.08 1192.32 809.816 1197.7 804.027 1200.86C798.5 1203.74 792.316 1205.19 785.473 1205.19ZM674.154 1151.23C674.154 1161.73 677.18 1169.21 683.233 1173.68C689.286 1178.14 696.786 1180.37 705.734 1180.37C709.681 1180.37 713.366 1179.85 716.787 1178.8C720.471 1177.75 724.813 1175.78 729.814 1172.89C734.813 1169.74 741.261 1165.27 749.156 1159.5V1099.23C742.314 1101.07 735.603 1103.17 729.024 1105.53C722.445 1107.63 717.05 1109.47 712.839 1111.05C701.523 1115.51 693.102 1120.11 687.575 1124.83C682.049 1129.56 678.364 1134.16 676.522 1138.62C674.943 1143.08 674.154 1147.29 674.154 1151.23ZM903.026 1206.37C889.341 1206.37 878.419 1202.69 870.261 1195.34C862.103 1187.99 858.024 1176.7 858.024 1161.47C858.024 1156.48 858.024 1151.62 858.024 1146.89C858.287 1141.9 858.419 1135.6 858.419 1127.99V1035.03H825.655V1017.69L860.787 1013.36L871.051 960.579H894.736L892.367 1014.15H945.659V1035.03H891.973V1157.13C891.973 1167.11 893.946 1174.47 897.894 1179.19C901.841 1183.66 907.105 1185.89 913.684 1185.89C918.158 1185.89 922.368 1184.97 926.315 1183.13C930.526 1181.29 935.132 1178.67 940.132 1175.25L949.606 1185.49C938.816 1199.41 923.289 1206.37 903.026 1206.37ZM1114.69 1205.19C1105.21 1205.19 1097.32 1202.43 1091 1196.92C1084.69 1191.4 1080.74 1184.05 1079.16 1174.86C1068.37 1185.36 1058.9 1193.24 1050.74 1198.49C1042.58 1203.74 1032.71 1206.37 1021.13 1206.37C1006.66 1206.37 994.158 1202.3 983.632 1194.16C973.368 1185.76 968.236 1173.41 968.236 1157.13C968.236 1149.52 969.947 1142.43 973.368 1135.86C977.052 1129.3 983.632 1122.86 993.106 1116.56C1002.58 1110.26 1016.13 1103.96 1033.76 1097.66C1039.82 1095.55 1046.79 1093.32 1054.69 1090.96C1062.58 1088.6 1070.48 1086.49 1078.37 1084.66V1074.81C1078.37 1055.64 1075.48 1042.9 1069.69 1036.6C1063.89 1030.3 1054.42 1027.15 1041.27 1027.15C1038.37 1027.15 1035.08 1027.28 1031.4 1027.54C1027.97 1027.8 1024.16 1028.46 1019.95 1029.51L1012.45 1055.11C1008.76 1067.72 1001.92 1074.02 991.921 1074.02C980.868 1074.02 974.684 1068.64 973.368 1057.87C977.052 1042.9 985.737 1031.09 999.422 1022.42C1013.37 1013.49 1030.34 1009.03 1050.34 1009.03C1071.14 1009.03 1086.53 1014.28 1096.53 1024.78C1106.53 1035.03 1111.53 1052.62 1111.53 1077.57V1161.47C1111.53 1169.87 1112.84 1175.91 1115.48 1179.59C1118.11 1183 1121.53 1184.71 1125.74 1184.71C1129.17 1184.71 1132.06 1183.92 1134.43 1182.34C1136.79 1180.77 1139.03 1178.67 1141.14 1176.04L1149.03 1184.71C1144.29 1192.32 1139.03 1197.7 1133.24 1200.86C1127.72 1203.74 1121.53 1205.19 1114.69 1205.19ZM1003.37 1151.23C1003.37 1161.73 1006.4 1169.21 1012.45 1173.68C1018.5 1178.14 1026 1180.37 1034.95 1180.37C1038.9 1180.37 1042.58 1179.85 1046 1178.8C1049.69 1177.75 1054.03 1175.78 1059.03 1172.89C1064.03 1169.74 1070.48 1165.27 1078.37 1159.5V1099.23C1071.53 1101.07 1064.82 1103.17 1058.24 1105.53C1051.66 1107.63 1046.27 1109.47 1042.05 1111.05C1030.74 1115.51 1022.32 1120.11 1016.79 1124.83C1011.26 1129.56 1007.58 1134.16 1005.74 1138.62C1004.16 1143.08 1003.37 1147.29 1003.37 1151.23Z" fill="white"/>
<path d="M1746.49 953.883V937.733H1854.26V955.458L1816.36 959.003L1882.68 1147.68L1946.63 959.397L1911.89 955.458V937.733H2003.08V953.883L1968.73 958.609L1885.44 1204.01H1868.07L1776.1 957.428L1746.49 953.883ZM2008.43 1201.25V1187.07L2038.04 1181.56C2038.3 1171.58 2038.43 1160.81 2038.43 1149.26C2038.69 1137.44 2038.83 1127.2 2038.83 1118.53V1100.02C2038.83 1089.25 2038.69 1080.32 2038.43 1073.23C2038.43 1065.88 2038.17 1058.27 2037.64 1050.39L2006.06 1046.84V1033.06L2066.85 1009.03L2072.78 1012.97L2071.59 1066.54V1118.53C2071.59 1127.2 2071.59 1137.44 2071.59 1149.26C2071.85 1160.81 2072.11 1171.58 2072.38 1181.56L2100.01 1187.07V1201.25H2008.43ZM2055.01 965.7C2047.64 965.7 2041.32 963.336 2036.06 958.609C2031.06 953.883 2028.56 947.843 2028.56 940.49C2028.56 932.875 2031.06 926.835 2036.06 922.371C2041.32 917.644 2047.64 915.281 2055.01 915.281C2062.38 915.281 2068.56 917.644 2073.56 922.371C2078.83 926.835 2081.46 932.875 2081.46 940.49C2081.46 947.843 2078.83 953.883 2073.56 958.609C2068.56 963.336 2062.38 965.7 2055.01 965.7ZM2191.14 1206.37C2180.08 1206.37 2169.96 1205.06 2160.74 1202.43C2151.53 1200.07 2142.06 1196.39 2132.32 1191.4L2130.74 1148.07H2152.45L2159.95 1182.34C2169.17 1186.54 2179.82 1188.65 2191.93 1188.65C2206.93 1188.65 2217.98 1185.89 2225.08 1180.37C2232.46 1174.86 2236.14 1167.64 2236.14 1158.71C2236.14 1150.31 2233.12 1143.61 2227.06 1138.62C2221.01 1133.37 2211.8 1128.64 2199.43 1124.44L2181.27 1117.74C2166.8 1112.49 2155.21 1105.66 2146.53 1097.26C2137.84 1088.86 2133.5 1077.96 2133.5 1064.57C2133.5 1054.85 2136.14 1045.79 2141.4 1037.39C2146.67 1028.99 2154.42 1022.16 2164.69 1016.91C2174.95 1011.65 2187.45 1009.03 2202.19 1009.03C2212.98 1009.03 2222.72 1010.47 2231.4 1013.36C2240.35 1015.99 2249.03 1019.93 2257.45 1025.18L2255.87 1065.36H2235.35L2229.03 1033.84C2220.09 1029.38 2211.01 1027.15 2201.79 1027.15C2189.69 1027.15 2180.48 1029.64 2174.16 1034.63C2168.11 1039.36 2165.08 1045.79 2165.08 1053.93C2165.08 1062.6 2167.72 1069.16 2172.98 1073.63C2178.5 1078.09 2187.98 1082.82 2201.4 1087.81L2213.64 1092.14C2233.37 1099.49 2247.33 1107.9 2255.48 1117.35C2263.91 1126.8 2268.11 1137.7 2268.11 1150.04C2268.11 1160.02 2265.22 1169.34 2259.43 1178.01C2253.64 1186.41 2245.09 1193.24 2233.77 1198.49C2222.46 1203.74 2208.25 1206.37 2191.14 1206.37ZM2371.38 1206.37C2355.32 1206.37 2342.69 1201.12 2333.48 1190.61C2324.27 1179.85 2319.8 1161.47 2320.06 1135.47L2321.25 1037.39L2293.22 1031.48V1017.3L2351.25 1011.79L2355.19 1015.72L2353.22 1070.87V1131.92C2353.22 1148.99 2355.85 1161.07 2361.11 1168.16C2366.38 1174.99 2374.27 1178.4 2384.8 1178.4C2403.22 1178.4 2421.64 1169.87 2440.06 1152.8L2441.25 1036.99L2413.22 1031.48V1017.3L2470.46 1011.79L2474.41 1015.72L2473.22 1070.87V1181.56L2500.07 1187.07V1201.25L2445.2 1204.4L2441.25 1169.34C2430.72 1182.21 2419.41 1191.67 2407.3 1197.7C2395.46 1203.48 2383.49 1206.37 2371.38 1206.37ZM2677.7 1205.19C2668.23 1205.19 2660.34 1202.43 2654.02 1196.92C2647.7 1191.4 2643.76 1184.05 2642.18 1174.86C2631.39 1185.36 2621.92 1193.24 2613.76 1198.49C2605.6 1203.74 2595.73 1206.37 2584.15 1206.37C2569.68 1206.37 2557.18 1202.3 2546.65 1194.16C2536.38 1185.76 2531.25 1173.41 2531.25 1157.13C2531.25 1149.52 2532.97 1142.43 2536.38 1135.86C2540.07 1129.3 2546.65 1122.86 2556.12 1116.56C2565.6 1110.26 2579.15 1103.96 2596.78 1097.66C2602.84 1095.55 2609.81 1093.32 2617.7 1090.96C2625.6 1088.6 2633.49 1086.49 2641.39 1084.66V1074.81C2641.39 1055.64 2638.49 1042.9 2632.7 1036.6C2626.92 1030.3 2617.44 1027.15 2604.28 1027.15C2601.39 1027.15 2598.1 1027.28 2594.41 1027.54C2591 1027.8 2587.18 1028.46 2582.96 1029.51L2575.46 1055.11C2571.78 1067.72 2564.94 1074.02 2554.94 1074.02C2543.88 1074.02 2537.7 1068.64 2536.38 1057.87C2540.07 1042.9 2548.76 1031.09 2562.44 1022.42C2576.39 1013.49 2593.36 1009.03 2613.36 1009.03C2634.15 1009.03 2649.55 1014.28 2659.55 1024.78C2669.55 1035.03 2674.55 1052.62 2674.55 1077.57V1161.47C2674.55 1169.87 2675.87 1175.91 2678.49 1179.59C2681.13 1183 2684.55 1184.71 2688.76 1184.71C2692.18 1184.71 2695.07 1183.92 2697.44 1182.34C2699.81 1180.77 2702.05 1178.67 2704.15 1176.04L2712.05 1184.71C2707.31 1192.32 2702.05 1197.7 2696.26 1200.86C2690.73 1203.74 2684.55 1205.19 2677.7 1205.19ZM2566.38 1151.23C2566.38 1161.73 2569.41 1169.21 2575.46 1173.68C2581.52 1178.14 2589.02 1180.37 2597.96 1180.37C2601.91 1180.37 2605.6 1179.85 2609.02 1178.8C2612.71 1177.75 2617.05 1175.78 2622.04 1172.89C2627.05 1169.74 2633.49 1165.27 2641.39 1159.5V1099.23C2634.55 1101.07 2627.84 1103.17 2621.26 1105.53C2614.68 1107.63 2609.28 1109.47 2605.07 1111.05C2593.76 1115.51 2585.33 1120.11 2579.81 1124.83C2574.28 1129.56 2570.6 1134.16 2568.75 1138.62C2567.17 1143.08 2566.38 1147.29 2566.38 1151.23ZM2724.21 1201.25V1187.07L2755.79 1181.56C2756.04 1170.79 2756.18 1160.28 2756.18 1150.04C2756.44 1139.54 2756.58 1129.04 2756.58 1118.53V945.611L2724.21 941.672V927.885L2785.79 910.16L2791.31 913.311L2789.73 969.245V1118.53C2789.73 1129.04 2789.73 1139.54 2789.73 1150.04C2789.99 1160.55 2790.26 1171.05 2790.52 1181.56L2822.1 1187.07V1201.25H2724.21ZM2845.73 1201.25V1187.07L2875.34 1181.56C2875.6 1171.58 2875.73 1160.81 2875.73 1149.26C2875.99 1137.44 2876.13 1127.2 2876.13 1118.53V1100.02C2876.13 1089.25 2875.99 1080.32 2875.73 1073.23C2875.73 1065.88 2875.47 1058.27 2874.94 1050.39L2843.36 1046.84V1033.06L2904.15 1009.03L2910.08 1012.97L2908.89 1066.54V1118.53C2908.89 1127.2 2908.89 1137.44 2908.89 1149.26C2909.15 1160.81 2909.42 1171.58 2909.68 1181.56L2937.31 1187.07V1201.25H2845.73ZM2892.31 965.7C2884.94 965.7 2878.62 963.336 2873.36 958.609C2868.36 953.883 2865.86 947.843 2865.86 940.49C2865.86 932.875 2868.36 926.835 2873.36 922.371C2878.62 917.644 2884.94 915.281 2892.31 915.281C2899.68 915.281 2905.86 917.644 2910.87 922.371C2916.13 926.835 2918.76 932.875 2918.76 940.49C2918.76 947.843 2916.13 953.883 2910.87 958.609C2905.86 963.336 2899.68 965.7 2892.31 965.7ZM2960.94 1201.25V1187.46L3074.23 1031.09H2994.49L2983.84 1074.81L2963.31 1073.23L2966.47 1014.15H3113.71V1028.33L3000.81 1184.71H3087.26L3099.1 1137.04H3119.63L3115.68 1201.25H2960.94ZM3235.71 1027.15C3228.34 1027.15 3220.84 1029.25 3213.21 1033.45C3205.84 1037.65 3199.39 1044.35 3193.87 1053.54C3188.6 1062.73 3185.18 1074.94 3183.6 1090.17H3255.45C3264.92 1090.17 3271.1 1088.2 3274 1084.26C3277.16 1080.32 3278.74 1075.47 3278.74 1069.69C3278.74 1062.07 3276.76 1055.11 3272.82 1048.81C3269.13 1042.25 3263.99 1036.99 3257.42 1033.06C3251.1 1029.12 3243.86 1027.15 3235.71 1027.15ZM3235.31 1206.37C3208.73 1206.37 3187.41 1197.84 3171.36 1180.77C3155.31 1163.44 3147.28 1139.67 3147.28 1109.47C3147.28 1089.25 3151.36 1071.66 3159.52 1056.69C3167.94 1041.72 3178.99 1030.04 3192.68 1021.63C3206.63 1013.23 3221.76 1009.03 3238.08 1009.03C3251.76 1009.03 3264.13 1012.05 3275.18 1018.09C3286.24 1024.13 3295.05 1032.79 3301.63 1044.09C3308.21 1055.11 3311.5 1068.64 3311.5 1084.66C3311.5 1089.12 3311.24 1093.32 3310.71 1097.26C3310.18 1100.94 3309.53 1104.09 3308.74 1106.71H3182.81C3183.34 1130.87 3189.39 1149.26 3200.97 1161.86C3212.55 1174.46 3227.81 1180.77 3246.76 1180.77C3259.39 1180.77 3269.92 1178.27 3278.34 1173.28C3286.76 1168.03 3294.53 1161.34 3301.63 1153.19L3311.11 1160.68C3303.73 1174.6 3293.74 1185.76 3281.1 1194.16C3268.47 1202.3 3253.21 1206.37 3235.31 1206.37ZM3347.33 1201.25V1187.07L3375.75 1181.95C3376.01 1171.97 3376.15 1161.2 3376.15 1149.65C3376.4 1137.83 3376.54 1127.46 3376.54 1118.53V1099.62C3376.54 1088.86 3376.4 1079.93 3376.15 1072.84C3376.15 1065.75 3375.88 1058.27 3375.36 1050.39L3344.17 1046.84V1033.06L3399.44 1009.03L3405.36 1012.97L3409.7 1059.45C3416.27 1043.69 3424.7 1031.35 3434.96 1022.42C3445.49 1013.49 3456.02 1009.03 3466.54 1009.03C3472.59 1009.03 3478.25 1010.34 3483.52 1012.97C3488.78 1015.59 3492.6 1019.14 3494.97 1023.6C3494.97 1042.77 3487.2 1052.36 3471.68 1052.36C3467.2 1052.36 3462.99 1051.57 3459.04 1049.99C3455.1 1048.16 3451.28 1045.66 3447.6 1042.51L3442.86 1038.18C3434.96 1043.95 3428.38 1051.04 3423.12 1059.45C3417.85 1067.85 3413.51 1077.7 3410.09 1088.99V1118.53C3410.09 1127.2 3410.09 1137.31 3410.09 1148.86C3410.35 1160.42 3410.62 1171.18 3410.88 1181.16L3443.25 1187.07V1201.25H3347.33Z" fill="white"/>
<path d="M1618.55 919.032V955.96C1618.55 989.964 1541.43 1017.51 1446.3 1017.51C1351.17 1017.51 1274.05 989.964 1274.05 955.96V919.032C1274.05 885.043 1351.17 857.485 1446.3 857.485C1541.43 857.485 1618.55 885.043 1618.55 919.032ZM1576.42 1022.66C1591.72 1016.97 1607.1 1009.66 1618.55 1000.66V1079.05C1618.55 1113.06 1541.43 1140.6 1446.3 1140.6C1351.17 1140.6 1274.05 1113.06 1274.05 1079.05V1000.66C1285.53 1009.66 1300.21 1016.97 1316.23 1022.66C1350.68 1034.97 1396.7 1042.12 1446.3 1042.12C1495.9 1042.12 1541.89 1034.97 1576.42 1022.66ZM1316.23 1145.75C1350.68 1158.06 1396.7 1165.22 1446.3 1165.22C1495.9 1165.22 1541.89 1158.06 1576.42 1145.75C1591.72 1140.06 1607.1 1132.75 1618.55 1123.75V1189.84C1618.55 1223.84 1541.43 1251.38 1446.3 1251.38C1351.17 1251.38 1274.05 1223.84 1274.05 1189.84V1123.75C1285.53 1132.75 1300.21 1140.06 1316.23 1145.75Z" fill="#DEDEDE"/>
<defs>
<linearGradient id="paint0_linear_110_3" x1="0" y1="1080" x2="3840" y2="1080" gradientUnits="userSpaceOnUse">
<stop stop-color="#2F2F2F"/>
<stop offset="1" stop-color="#5A5A5A"/>
</linearGradient>
</defs>
</svg>
