<svg width="3840" height="2160" viewBox="0 0 3840 2160" fill="none" xmlns="http://www.w3.org/2000/svg">
<path d="M3840 0H0V2160H3840V0Z" fill="#E1DFDF"/>
<rect x="90" y="75" width="3659" height="2010" rx="94" fill="#40632F"/>
<path d="M1660.06 1219V1000.82H1719.3V1171.27H1807.51V1219H1660.06ZM1832.3 1219V1055.36H1891.11V1219H1832.3ZM1861.7 1038.32C1853.75 1038.32 1846.93 1035.69 1841.25 1030.43C1835.57 1025.18 1832.73 1018.86 1832.73 1011.47C1832.73 1004.09 1835.57 997.764 1841.25 992.509C1846.93 987.253 1853.75 984.625 1861.7 984.625C1869.73 984.625 1876.55 987.253 1882.16 992.509C1887.84 997.764 1890.68 1004.09 1890.68 1011.47C1890.68 1018.86 1887.84 1025.18 1882.16 1030.43C1876.55 1035.69 1869.73 1038.32 1861.7 1038.32ZM2019.08 1055.36V1097.98H1909.57V1055.36H2019.08ZM1930.45 1219V1050.68C1930.45 1037.18 1932.86 1026 1937.69 1017.12C1942.52 1008.24 1949.34 1001.6 1958.14 997.196C1966.95 992.793 1977.32 990.591 1989.25 990.591C1996.71 990.591 2003.95 991.159 2010.99 992.295C2018.09 993.432 2023.34 994.426 2026.75 995.278L2018.23 1037.47C2016.1 1036.83 2013.61 1036.33 2010.77 1035.97C2007.93 1035.55 2005.45 1035.34 2003.32 1035.34C1997.78 1035.34 1994.05 1036.51 1992.13 1038.85C1990.21 1041.19 1989.25 1044.28 1989.25 1048.12V1219H1930.45ZM2115.2 1221.98C2097.73 1221.98 2082.67 1218.64 2070.03 1211.97C2057.46 1205.22 2047.77 1195.56 2040.95 1182.99C2034.2 1170.35 2030.83 1155.22 2030.83 1137.61C2030.83 1120.7 2034.24 1105.93 2041.06 1093.29C2047.87 1080.65 2057.5 1070.81 2069.93 1063.78C2082.35 1056.75 2097.02 1053.23 2113.92 1053.23C2126.28 1053.23 2137.47 1055.15 2147.48 1058.99C2157.5 1062.82 2166.06 1068.4 2173.16 1075.71C2180.26 1082.96 2185.73 1091.76 2189.56 1102.13C2193.4 1112.5 2195.32 1124.18 2195.32 1137.18V1150.82H2049.15V1118.43H2141.2C2141.13 1113.74 2139.92 1109.62 2137.57 1106.07C2135.3 1102.45 2132.21 1099.65 2128.31 1097.66C2124.47 1095.6 2120.1 1094.57 2115.2 1094.57C2110.44 1094.57 2106.08 1095.6 2102.1 1097.66C2098.12 1099.65 2094.93 1102.42 2092.51 1105.97C2090.17 1109.52 2088.92 1113.67 2088.78 1118.43V1153.38C2088.78 1158.63 2089.88 1163.32 2092.08 1167.44C2094.29 1171.56 2097.45 1174.79 2101.57 1177.13C2105.69 1179.48 2110.66 1180.65 2116.48 1180.65C2120.53 1180.65 2124.22 1180.08 2127.56 1178.94C2130.97 1177.81 2133.88 1176.17 2136.3 1174.04C2138.71 1171.84 2140.49 1169.21 2141.62 1166.16H2195.32C2193.47 1177.52 2189.1 1187.39 2182.21 1195.78C2175.32 1204.09 2166.2 1210.55 2154.83 1215.16C2143.54 1219.71 2130.33 1221.98 2115.2 1221.98ZM2258.62 1219L2194.28 1000.82H2260.33L2290.16 1135.05H2291.86L2327.23 1000.82H2379.22L2414.59 1135.48H2416.29L2446.12 1000.82H2512.18L2447.83 1219H2391.15L2354.08 1097.12H2352.37L2315.3 1219H2258.62ZM2532.2 1219V1055.36H2591.01V1219H2532.2ZM2561.61 1038.32C2553.65 1038.32 2546.83 1035.69 2541.15 1030.43C2535.47 1025.18 2532.63 1018.86 2532.63 1011.47C2532.63 1004.09 2535.47 997.764 2541.15 992.509C2546.83 987.253 2553.65 984.625 2561.61 984.625C2569.63 984.625 2576.45 987.253 2582.06 992.509C2587.74 997.764 2590.58 1004.09 2590.58 1011.47C2590.58 1018.86 2587.74 1025.18 2582.06 1030.43C2576.45 1035.69 2569.63 1038.32 2561.61 1038.32ZM2679.78 1000.82V1219H2620.97V1000.82H2679.78ZM2768.98 1221.13C2757.33 1221.13 2746.6 1218.08 2736.8 1211.97C2727.07 1205.86 2719.26 1196.59 2713.37 1184.16C2707.54 1171.73 2704.63 1156.07 2704.63 1137.18C2704.63 1117.44 2707.68 1101.39 2713.79 1089.03C2719.97 1076.67 2727.92 1067.62 2737.65 1061.86C2747.46 1056.11 2757.75 1053.23 2768.55 1053.23C2776.65 1053.23 2783.75 1054.65 2789.86 1057.49C2795.96 1060.26 2801.08 1063.99 2805.2 1068.68C2809.32 1073.3 2812.44 1078.37 2814.57 1083.91H2815.42V1000.82H2874.23V1219H2815.85V1192.15H2814.57C2812.3 1197.69 2809.03 1202.66 2804.77 1207.07C2800.58 1211.4 2795.47 1214.85 2789.43 1217.4C2783.46 1219.89 2776.65 1221.13 2768.98 1221.13ZM2790.71 1175.96C2796.11 1175.96 2800.72 1174.4 2804.56 1171.27C2808.46 1168.08 2811.45 1163.6 2813.51 1157.85C2815.64 1152.03 2816.7 1145.14 2816.7 1137.18C2816.7 1129.09 2815.64 1122.16 2813.51 1116.41C2811.45 1110.58 2808.46 1106.14 2804.56 1103.09C2800.72 1099.97 2796.11 1098.4 2790.71 1098.4C2785.31 1098.4 2780.69 1099.97 2776.86 1103.09C2773.1 1106.14 2770.18 1110.58 2768.12 1116.41C2766.13 1122.16 2765.14 1129.09 2765.14 1137.18C2765.14 1145.28 2766.13 1152.24 2768.12 1158.06C2770.18 1163.82 2773.1 1168.25 2776.86 1171.38C2780.69 1174.43 2785.31 1175.96 2790.71 1175.96Z" fill="#E1DFDF"/>
<g clip-path="url(#clip0_23_188)">
<path d="M1255 1384C1422.89 1384 1559 1247.89 1559 1080C1559 912.105 1422.89 776 1255 776C1087.11 776 951 912.105 951 1080C951 1247.89 1087.11 1384 1255 1384Z" fill="#D9D9D9"/>
<path fill-rule="evenodd" clip-rule="evenodd" d="M1062.88 1000C1127.42 1000 1185.6 1027.31 1226.47 1071C1241.73 1087.58 1245.1 1108.72 1248.42 1129.55C1252.64 1156.08 1256.78 1182.09 1285.32 1197.5C1286.35 1206.19 1286.88 1215.03 1286.88 1224V1256V1352C1286.88 1369.7 1272.58 1384 1254.88 1384C1237.18 1384 1222.88 1369.7 1222.88 1352V1256C1099.18 1256 998.875 1155.7 998.875 1032C998.875 1028.29 998.624 1024.73 998.391 1021.42C997.513 1008.93 996.885 1000 1010.87 1000H1062.88Z" fill="#505050"/>
<path d="M1285.32 1197.5C1285.02 1194.95 1284.68 1192.41 1284.29 1189.89C1277.32 1144.28 1256.59 1103.19 1226.47 1071C1241.73 1087.58 1245.1 1108.72 1248.42 1129.55C1252.64 1156.08 1256.78 1182.09 1285.32 1197.5Z" fill="#505050"/>
<path d="M1285.32 1197.5C1394.92 1183 1510.88 1081.6 1510.88 968C1510.88 950.3 1516.08 933 1498.38 933L1446.88 936C1362.88 936 1264.77 1002.6 1226.47 1071C1256.59 1103.19 1277.32 1144.28 1284.29 1189.89C1284.68 1192.41 1285.02 1194.95 1285.32 1197.5Z" fill="#9CBF97"/>
</g>
<defs>
<clipPath id="clip0_23_188">
<rect width="608" height="608" fill="white" transform="translate(951 776)"/>
</clipPath>
</defs>
</svg>
