<svg width="787" height="572" viewBox="0 0 787 572" fill="none" xmlns="http://www.w3.org/2000/svg">
<g clip-path="url(#clip0_1_2)">
<path d="M458.426 100.837C473.176 100.837 485.133 88.888 485.133 74.1482C485.133 59.4084 473.176 47.4595 458.426 47.4595C443.676 47.4595 431.719 59.4084 431.719 74.1482C431.719 88.888 443.676 100.837 458.426 100.837Z" fill="#F2F2F2"/>
<path d="M665.6 496.928C705.297 466.713 724.257 415.939 712.387 367.504C712.092 366.301 711.781 365.1 711.453 363.902C703.584 335.151 684.115 307.826 655.74 298.64C631.915 290.926 605.909 296.858 581.054 293.791C532.261 287.769 494.433 248.317 467.817 207.01C441.2 165.704 420.744 119.467 385.376 85.3411C327.078 29.0911 231.979 16.9804 159.698 53.595C87.4167 90.2096 41.3743 171.442 43.3379 252.401C45.3016 333.359 93.3956 410.761 163.24 451.828C188.898 466.914 218.574 477.601 248.108 473.862C273.734 470.617 297.018 456.857 322.524 452.772C362.624 446.349 402.469 464.467 437.152 485.581C471.836 506.694 505.338 531.72 544.751 541.508C583.022 551.012 630.435 523.694 665.6 496.928Z" fill="#F2F2F2"/>
<path d="M608.565 55.295C607.695 54.7153 606.815 54.1656 605.945 53.6058C580.79 37.5288 553.828 24.468 525.616 14.6933L519.075 104.873H477.605V1.52926C474.995 0.989507 472.364 0.479738 469.733 -4.57764e-05V104.873H420.452C393.322 104.873 367.303 94.1027 348.12 74.932C328.936 55.7614 318.159 29.7603 318.159 2.64888V2.64879C315.518 3.21853 312.898 3.82826 310.277 4.47796V104.873H270.138L263.906 18.8815C234.914 29.9928 207.391 44.6046 181.948 62.3919C181.507 62.6917 181.067 63.0016 180.637 63.3014C178.427 64.8508 176.246 66.4301 174.076 68.0293V412.064H292.373L290.282 383.127L278.78 224.249H510.423L498.92 383.127L496.83 412.064H613.816V58.7735C612.076 57.594 610.326 56.4346 608.565 55.295ZM310.277 198.011H276.879L270.708 112.749H310.277V198.011ZM469.733 198.011H413.641V196.321C413.641 195.509 413.48 194.705 413.169 193.955C412.858 193.205 412.402 192.524 411.827 191.95C411.252 191.376 410.569 190.921 409.818 190.612C409.067 190.302 408.262 190.143 407.449 190.144H383.064C382.252 190.144 381.448 190.304 380.698 190.614C379.948 190.924 379.266 191.379 378.692 191.953C378.118 192.527 377.663 193.208 377.352 193.957C377.042 194.707 376.882 195.51 376.882 196.321V198.011H318.159V112.749H469.733V198.011ZM477.605 198.011V112.749H518.505L512.333 198.011H477.605Z" fill="#3F3D56"/>
<path d="M-3.05176e-05 434.095C8.68921 444.384 18.0876 454.053 28.1264 463.032L758.874 464.032C768.912 455.053 778.311 445.384 787 435.095L-3.05176e-05 434.095Z" fill="#3F3D56"/>
<path d="M495.543 341.437V427.103C495.544 428.195 495.979 429.241 496.751 430.013C497.523 430.785 498.571 431.219 499.663 431.22H626.697C627.789 431.219 628.837 430.785 629.609 430.013C630.382 429.241 630.816 428.195 630.817 427.103V341.437C630.814 340.347 630.379 339.301 629.607 338.531C628.835 337.76 627.788 337.326 626.697 337.325H499.663C498.572 337.326 497.525 337.76 496.753 338.531C495.981 339.301 495.546 340.347 495.543 341.437V341.437Z" fill="#3F3D56"/>
<path d="M498.523 342.503V426.046C498.524 426.629 498.757 427.188 499.169 427.601C499.582 428.013 500.142 428.245 500.725 428.247H625.639C626.223 428.245 626.783 428.013 627.195 427.601C627.608 427.188 627.84 426.629 627.841 426.046V342.503C627.841 341.919 627.609 341.359 627.197 340.946C626.784 340.532 626.224 340.3 625.639 340.298H500.725C500.141 340.3 499.581 340.532 499.168 340.946C498.755 341.359 498.523 341.919 498.523 342.503V342.503Z" fill="#606060"/>
<path d="M492.887 443.81C493.119 444.101 493.415 444.337 493.752 444.498C494.088 444.659 494.457 444.741 494.83 444.739H630.854C631.226 444.739 631.593 444.656 631.928 444.495C632.264 444.335 632.56 444.102 632.794 443.814C633.029 443.525 633.196 443.188 633.283 442.826C633.371 442.465 633.376 442.089 633.3 441.725L631.189 431.702C631.101 431.294 630.913 430.913 630.64 430.596C630.368 430.278 630.021 430.034 629.63 429.885C629.347 429.774 629.046 429.718 628.742 429.718H496.934C496.63 429.718 496.328 429.774 496.045 429.885C495.654 430.034 495.307 430.278 495.035 430.596C494.763 430.913 494.574 431.294 494.487 431.702L492.375 441.725C492.3 442.089 492.307 442.464 492.396 442.825C492.484 443.186 492.652 443.522 492.887 443.81V443.81Z" fill="#2F2E41"/>
<path d="M624.075 434.035H627.288C627.557 434.035 627.776 433.816 627.776 433.547V432.011C627.776 431.741 627.557 431.523 627.288 431.523H624.075C623.805 431.523 623.586 431.741 623.586 432.011V433.547C623.586 433.816 623.805 434.035 624.075 434.035Z" fill="#3F3D56"/>
<path d="M615.696 434.035H618.909C619.178 434.035 619.397 433.816 619.397 433.547V432.011C619.397 431.741 619.178 431.523 618.909 431.523H615.696C615.426 431.523 615.208 431.741 615.208 432.011V433.547C615.208 433.816 615.426 434.035 615.696 434.035Z" fill="#3F3D56"/>
<path d="M607.317 434.035H610.53C610.799 434.035 611.018 433.816 611.018 433.547V432.011C611.018 431.741 610.799 431.523 610.53 431.523H607.317C607.047 431.523 606.829 431.741 606.829 432.011V433.547C606.829 433.816 607.047 434.035 607.317 434.035Z" fill="#3F3D56"/>
<path d="M598.938 434.035H602.151C602.421 434.035 602.639 433.816 602.639 433.547V432.011C602.639 431.741 602.421 431.523 602.151 431.523H598.938C598.668 431.523 598.45 431.741 598.45 432.011V433.547C598.45 433.816 598.668 434.035 598.938 434.035Z" fill="#3F3D56"/>
<path d="M590.559 434.035H593.772C594.042 434.035 594.26 433.816 594.26 433.547V432.011C594.26 431.741 594.042 431.523 593.772 431.523H590.559C590.29 431.523 590.071 431.741 590.071 432.011V433.547C590.071 433.816 590.29 434.035 590.559 434.035Z" fill="#3F3D56"/>
<path d="M582.18 434.035H585.393C585.663 434.035 585.881 433.816 585.881 433.547V432.011C585.881 431.741 585.663 431.523 585.393 431.523H582.18C581.911 431.523 581.692 431.741 581.692 432.011V433.547C581.692 433.816 581.911 434.035 582.18 434.035Z" fill="#3F3D56"/>
<path d="M573.801 434.035H577.014C577.284 434.035 577.503 433.816 577.503 433.547V432.011C577.503 431.741 577.284 431.523 577.014 431.523H573.801C573.532 431.523 573.313 431.741 573.313 432.011V433.547C573.313 433.816 573.532 434.035 573.801 434.035Z" fill="#3F3D56"/>
<path d="M565.422 434.035H568.635C568.905 434.035 569.124 433.816 569.124 433.547V432.011C569.124 431.741 568.905 431.523 568.635 431.523H565.422C565.153 431.523 564.934 431.741 564.934 432.011V433.547C564.934 433.816 565.153 434.035 565.422 434.035Z" fill="#3F3D56"/>
<path d="M557.044 434.035H560.256C560.526 434.035 560.745 433.816 560.745 433.547V432.011C560.745 431.741 560.526 431.523 560.256 431.523H557.044C556.774 431.523 556.555 431.741 556.555 432.011V433.547C556.555 433.816 556.774 434.035 557.044 434.035Z" fill="#3F3D56"/>
<path d="M548.665 434.035H551.877C552.147 434.035 552.366 433.816 552.366 433.547V432.011C552.366 431.741 552.147 431.523 551.877 431.523H548.665C548.395 431.523 548.176 431.741 548.176 432.011V433.547C548.176 433.816 548.395 434.035 548.665 434.035Z" fill="#3F3D56"/>
<path d="M540.286 434.035H543.499C543.768 434.035 543.987 433.816 543.987 433.547V432.011C543.987 431.741 543.768 431.523 543.499 431.523H540.286C540.016 431.523 539.797 431.741 539.797 432.011V433.547C539.797 433.816 540.016 434.035 540.286 434.035Z" fill="#3F3D56"/>
<path d="M531.907 434.035H535.12C535.389 434.035 535.608 433.816 535.608 433.547V432.011C535.608 431.741 535.389 431.523 535.12 431.523H531.907C531.637 431.523 531.419 431.741 531.419 432.011V433.547C531.419 433.816 531.637 434.035 531.907 434.035Z" fill="#3F3D56"/>
<path d="M523.528 434.035H526.741C527.01 434.035 527.229 433.816 527.229 433.547V432.011C527.229 431.741 527.01 431.523 526.741 431.523H523.528C523.258 431.523 523.04 431.741 523.04 432.011V433.547C523.04 433.816 523.258 434.035 523.528 434.035Z" fill="#3F3D56"/>
<path d="M515.149 434.035H518.362C518.632 434.035 518.85 433.816 518.85 433.547V432.011C518.85 431.741 518.632 431.523 518.362 431.523H515.149C514.879 431.523 514.661 431.741 514.661 432.011V433.547C514.661 433.816 514.879 434.035 515.149 434.035Z" fill="#3F3D56"/>
<path d="M506.77 434.035H509.983C510.253 434.035 510.471 433.816 510.471 433.547V432.011C510.471 431.741 510.253 431.523 509.983 431.523H506.77C506.5 431.523 506.282 431.741 506.282 432.011V433.547C506.282 433.816 506.5 434.035 506.77 434.035Z" fill="#3F3D56"/>
<path d="M498.391 434.035H501.604C501.874 434.035 502.092 433.816 502.092 433.547V432.011C502.092 431.741 501.874 431.523 501.604 431.523H498.391C498.122 431.523 497.903 431.741 497.903 432.011V433.547C497.903 433.816 498.122 434.035 498.391 434.035Z" fill="#3F3D56"/>
<path d="M624.174 438.221H627.387C627.656 438.221 627.875 438.003 627.875 437.733V436.197C627.875 435.928 627.656 435.709 627.387 435.709H624.174C623.904 435.709 623.685 435.928 623.685 436.197V437.733C623.685 438.003 623.904 438.221 624.174 438.221Z" fill="#3F3D56"/>
<path d="M615.795 438.221H619.008C619.277 438.221 619.496 438.003 619.496 437.733V436.197C619.496 435.928 619.277 435.709 619.008 435.709H615.795C615.525 435.709 615.307 435.928 615.307 436.197V437.733C615.307 438.003 615.525 438.221 615.795 438.221Z" fill="#3F3D56"/>
<path d="M607.416 438.221H610.629C610.898 438.221 611.117 438.003 611.117 437.733V436.197C611.117 435.928 610.898 435.709 610.629 435.709H607.416C607.146 435.709 606.928 435.928 606.928 436.197V437.733C606.928 438.003 607.146 438.221 607.416 438.221Z" fill="#3F3D56"/>
<path d="M599.037 438.221H602.25C602.52 438.221 602.738 438.003 602.738 437.733V436.197C602.738 435.928 602.52 435.709 602.25 435.709H599.037C598.767 435.709 598.549 435.928 598.549 436.197V437.733C598.549 438.003 598.767 438.221 599.037 438.221Z" fill="#3F3D56"/>
<path d="M590.658 438.221H593.871C594.141 438.221 594.359 438.003 594.359 437.733V436.197C594.359 435.928 594.141 435.709 593.871 435.709H590.658C590.388 435.709 590.17 435.928 590.17 436.197V437.733C590.17 438.003 590.388 438.221 590.658 438.221Z" fill="#3F3D56"/>
<path d="M582.279 438.221H585.492C585.762 438.221 585.98 438.003 585.98 437.733V436.197C585.98 435.928 585.762 435.709 585.492 435.709H582.279C582.01 435.709 581.791 435.928 581.791 436.197V437.733C581.791 438.003 582.01 438.221 582.279 438.221Z" fill="#3F3D56"/>
<path d="M573.9 438.221H577.113C577.383 438.221 577.602 438.003 577.602 437.733V436.197C577.602 435.928 577.383 435.709 577.113 435.709H573.9C573.631 435.709 573.412 435.928 573.412 436.197V437.733C573.412 438.003 573.631 438.221 573.9 438.221Z" fill="#3F3D56"/>
<path d="M565.521 438.221H568.734C569.004 438.221 569.223 438.003 569.223 437.733V436.197C569.223 435.928 569.004 435.709 568.734 435.709H565.521C565.252 435.709 565.033 435.928 565.033 436.197V437.733C565.033 438.003 565.252 438.221 565.521 438.221Z" fill="#3F3D56"/>
<path d="M557.143 438.221H560.355C560.625 438.221 560.844 438.003 560.844 437.733V436.197C560.844 435.928 560.625 435.709 560.355 435.709H557.143C556.873 435.709 556.654 435.928 556.654 436.197V437.733C556.654 438.003 556.873 438.221 557.143 438.221Z" fill="#3F3D56"/>
<path d="M548.764 438.221H551.977C552.246 438.221 552.465 438.003 552.465 437.733V436.197C552.465 435.928 552.246 435.709 551.977 435.709H548.764C548.494 435.709 548.275 435.928 548.275 436.197V437.733C548.275 438.003 548.494 438.221 548.764 438.221Z" fill="#3F3D56"/>
<path d="M540.385 438.221H543.598C543.867 438.221 544.086 438.003 544.086 437.733V436.197C544.086 435.928 543.867 435.709 543.598 435.709H540.385C540.115 435.709 539.896 435.928 539.896 436.197V437.733C539.896 438.003 540.115 438.221 540.385 438.221Z" fill="#3F3D56"/>
<path d="M532.006 438.221H535.219C535.488 438.221 535.707 438.003 535.707 437.733V436.197C535.707 435.928 535.488 435.709 535.219 435.709H532.006C531.736 435.709 531.518 435.928 531.518 436.197V437.733C531.518 438.003 531.736 438.221 532.006 438.221Z" fill="#3F3D56"/>
<path d="M523.627 438.221H526.84C527.11 438.221 527.328 438.003 527.328 437.733V436.197C527.328 435.928 527.11 435.709 526.84 435.709H523.627C523.357 435.709 523.139 435.928 523.139 436.197V437.733C523.139 438.003 523.357 438.221 523.627 438.221Z" fill="#3F3D56"/>
<path d="M515.248 438.221H518.461C518.731 438.221 518.949 438.003 518.949 437.733V436.197C518.949 435.928 518.731 435.709 518.461 435.709H515.248C514.978 435.709 514.76 435.928 514.76 436.197V437.733C514.76 438.003 514.978 438.221 515.248 438.221Z" fill="#3F3D56"/>
<path d="M506.869 438.221H510.082C510.352 438.221 510.57 438.003 510.57 437.733V436.197C510.57 435.928 510.352 435.709 510.082 435.709H506.869C506.599 435.709 506.381 435.928 506.381 436.197V437.733C506.381 438.003 506.599 438.221 506.869 438.221Z" fill="#3F3D56"/>
<path d="M498.49 438.221H501.703C501.973 438.221 502.191 438.003 502.191 437.733V436.197C502.191 435.928 501.973 435.709 501.703 435.709H498.49C498.221 435.709 498.002 435.928 498.002 436.197V437.733C498.002 438.003 498.221 438.221 498.49 438.221Z" fill="#3F3D56"/>
<path d="M554.629 443.245H587.168C587.438 443.245 587.656 443.027 587.656 442.757V441.221C587.656 440.952 587.438 440.733 587.168 440.733H554.629C554.359 440.733 554.141 440.952 554.141 441.221V442.757C554.141 443.027 554.359 443.245 554.629 443.245Z" fill="#3F3D56"/>
<path d="M520.155 358.575H517.31C516.448 358.575 515.749 359.274 515.749 360.136C515.749 360.998 516.448 361.696 517.31 361.696H520.155C521.017 361.696 521.716 360.998 521.716 360.136C521.716 359.274 521.017 358.575 520.155 358.575Z" fill="white"/>
<path d="M552.685 358.575H549.841C548.979 358.575 548.279 359.274 548.279 360.136C548.279 360.998 548.979 361.696 549.841 361.696H552.685C553.548 361.696 554.247 360.998 554.247 360.136C554.247 359.274 553.548 358.575 552.685 358.575Z" fill="white"/>
<path d="M561.902 358.575H559.058C558.196 358.575 557.496 359.274 557.496 360.136C557.496 360.998 558.196 361.696 559.058 361.696H561.902C562.765 361.696 563.464 360.998 563.464 360.136C563.464 359.274 562.765 358.575 561.902 358.575Z" fill="white"/>
<path d="M543.837 358.315H526.159C525.297 358.315 524.597 359.014 524.597 359.876C524.597 360.737 525.297 361.436 526.159 361.436H543.837C544.699 361.436 545.398 360.737 545.398 359.876C545.398 359.014 544.699 358.315 543.837 358.315Z" fill="white"/>
<path d="M587.211 358.315H569.533C568.67 358.315 567.971 359.014 567.971 359.876C567.971 360.737 568.67 361.436 569.533 361.436H587.211C588.073 361.436 588.772 360.737 588.772 359.876C588.772 359.014 588.073 358.315 587.211 358.315Z" fill="white"/>
<path d="M528.83 365.619H525.985C525.123 365.619 524.424 366.318 524.424 367.179C524.424 368.041 525.123 368.74 525.985 368.74H528.83C529.692 368.74 530.391 368.041 530.391 367.179C530.391 366.318 529.692 365.619 528.83 365.619Z" fill="white"/>
<path d="M561.36 365.619H558.516C557.653 365.619 556.954 366.318 556.954 367.179C556.954 368.041 557.653 368.74 558.516 368.74H561.36C562.222 368.74 562.922 368.041 562.922 367.179C562.922 366.318 562.222 365.619 561.36 365.619Z" fill="white"/>
<path d="M570.577 365.619H567.733C566.87 365.619 566.171 366.318 566.171 367.179C566.171 368.041 566.87 368.74 567.733 368.74H570.577C571.439 368.74 572.138 368.041 572.138 367.179C572.138 366.318 571.439 365.619 570.577 365.619Z" fill="white"/>
<path d="M552.512 365.359H534.834C533.971 365.359 533.272 366.057 533.272 366.919C533.272 367.781 533.971 368.48 534.834 368.48H552.512C553.374 368.48 554.073 367.781 554.073 366.919C554.073 366.057 553.374 365.359 552.512 365.359Z" fill="white"/>
<path d="M595.886 365.359H578.208C577.345 365.359 576.646 366.057 576.646 366.919C576.646 367.781 577.345 368.48 578.208 368.48H595.886C596.748 368.48 597.447 367.781 597.447 366.919C597.447 366.057 596.748 365.359 595.886 365.359Z" fill="white"/>
<path d="M537.504 372.662H534.66C533.798 372.662 533.099 373.361 533.099 374.223C533.099 375.085 533.798 375.783 534.66 375.783H537.504C538.367 375.783 539.066 375.085 539.066 374.223C539.066 373.361 538.367 372.662 537.504 372.662Z" fill="white"/>
<path d="M570.035 372.662H567.19C566.328 372.662 565.629 373.361 565.629 374.223C565.629 375.085 566.328 375.783 567.19 375.783H570.035C570.897 375.783 571.596 375.085 571.596 374.223C571.596 373.361 570.897 372.662 570.035 372.662Z" fill="white"/>
<path d="M579.252 372.662H576.408C575.545 372.662 574.846 373.361 574.846 374.223C574.846 375.085 575.545 375.783 576.408 375.783H579.252C580.114 375.783 580.813 375.085 580.813 374.223C580.813 373.361 580.114 372.662 579.252 372.662Z" fill="white"/>
<path d="M561.186 372.402H543.508C542.646 372.402 541.947 373.101 541.947 373.963C541.947 374.824 542.646 375.523 543.508 375.523H561.186C562.049 375.523 562.748 374.824 562.748 373.963C562.748 373.101 562.049 372.402 561.186 372.402Z" fill="white"/>
<path d="M604.56 372.402H586.882C586.02 372.402 585.321 373.101 585.321 373.963C585.321 374.824 586.02 375.523 586.882 375.523H604.56C605.423 375.523 606.122 374.824 606.122 373.963C606.122 373.101 605.423 372.402 604.56 372.402Z" fill="white"/>
<path d="M546.179 379.706H543.335C542.473 379.706 541.773 380.405 541.773 381.266C541.773 382.128 542.473 382.827 543.335 382.827H546.179C547.042 382.827 547.741 382.128 547.741 381.266C547.741 380.405 547.042 379.706 546.179 379.706Z" fill="white"/>
<path d="M578.71 379.706H575.865C575.003 379.706 574.304 380.405 574.304 381.266C574.304 382.128 575.003 382.827 575.865 382.827H578.71C579.572 382.827 580.271 382.128 580.271 381.266C580.271 380.405 579.572 379.706 578.71 379.706Z" fill="white"/>
<path d="M587.927 379.706H585.082C584.22 379.706 583.521 380.405 583.521 381.266C583.521 382.128 584.22 382.827 585.082 382.827H587.927C588.789 382.827 589.488 382.128 589.488 381.266C589.488 380.405 588.789 379.706 587.927 379.706Z" fill="white"/>
<path d="M569.861 379.446H552.183C551.321 379.446 550.622 380.144 550.622 381.006C550.622 381.868 551.321 382.567 552.183 382.567H569.861C570.724 382.567 571.423 381.868 571.423 381.006C571.423 380.144 570.724 379.446 569.861 379.446Z" fill="white"/>
<path d="M552.685 407.714H549.841C548.979 407.714 548.279 408.412 548.279 409.274C548.279 410.136 548.979 410.835 549.841 410.835H552.685C553.548 410.835 554.247 410.136 554.247 409.274C554.247 408.412 553.548 407.714 552.685 407.714Z" fill="white"/>
<path d="M561.902 407.714H559.058C558.196 407.714 557.496 408.412 557.496 409.274C557.496 410.136 558.196 410.835 559.058 410.835H561.902C562.765 410.835 563.464 410.136 563.464 409.274C563.464 408.412 562.765 407.714 561.902 407.714Z" fill="white"/>
<path d="M587.211 407.974H569.533C568.67 407.974 567.971 408.673 567.971 409.534C567.971 410.396 568.67 411.095 569.533 411.095H587.211C588.073 411.095 588.772 410.396 588.772 409.534C588.772 408.673 588.073 407.974 587.211 407.974Z" fill="white"/>
<path d="M520.155 407.714H517.31C516.448 407.714 515.749 408.412 515.749 409.274C515.749 410.136 516.448 410.835 517.31 410.835H520.155C521.017 410.835 521.716 410.136 521.716 409.274C521.716 408.412 521.017 407.714 520.155 407.714Z" fill="white"/>
<path d="M543.837 407.974H526.159C525.297 407.974 524.597 408.673 524.597 409.534C524.597 410.396 525.297 411.095 526.159 411.095H543.837C544.699 411.095 545.398 410.396 545.398 409.534C545.398 408.673 544.699 407.974 543.837 407.974Z" fill="white"/>
<path d="M528.83 400.67H525.985C525.123 400.67 524.424 401.369 524.424 402.231C524.424 403.092 525.123 403.791 525.985 403.791H528.83C529.692 403.791 530.391 403.092 530.391 402.231C530.391 401.369 529.692 400.67 528.83 400.67Z" fill="white"/>
<path d="M561.36 400.67H558.516C557.653 400.67 556.954 401.369 556.954 402.231C556.954 403.092 557.653 403.791 558.516 403.791H561.36C562.222 403.791 562.922 403.092 562.922 402.231C562.922 401.369 562.222 400.67 561.36 400.67Z" fill="white"/>
<path d="M570.577 400.67H567.733C566.87 400.67 566.171 401.369 566.171 402.231C566.171 403.092 566.87 403.791 567.733 403.791H570.577C571.439 403.791 572.138 403.092 572.138 402.231C572.138 401.369 571.439 400.67 570.577 400.67Z" fill="white"/>
<path d="M552.512 400.93H534.834C533.971 400.93 533.272 401.629 533.272 402.491C533.272 403.353 533.971 404.051 534.834 404.051H552.512C553.374 404.051 554.073 403.353 554.073 402.491C554.073 401.629 553.374 400.93 552.512 400.93Z" fill="white"/>
<path d="M537.504 393.627H534.66C533.798 393.627 533.099 394.325 533.099 395.187C533.099 396.049 533.798 396.748 534.66 396.748H537.504C538.367 396.748 539.066 396.049 539.066 395.187C539.066 394.325 538.367 393.627 537.504 393.627Z" fill="white"/>
<path d="M570.035 393.627H567.19C566.328 393.627 565.629 394.325 565.629 395.187C565.629 396.049 566.328 396.748 567.19 396.748H570.035C570.897 396.748 571.596 396.049 571.596 395.187C571.596 394.325 570.897 393.627 570.035 393.627Z" fill="white"/>
<path d="M579.252 393.627H576.408C575.545 393.627 574.846 394.325 574.846 395.187C574.846 396.049 575.545 396.748 576.408 396.748H579.252C580.114 396.748 580.813 396.049 580.813 395.187C580.813 394.325 580.114 393.627 579.252 393.627Z" fill="white"/>
<path d="M561.186 393.887H543.508C542.646 393.887 541.947 394.586 541.947 395.447C541.947 396.309 542.646 397.008 543.508 397.008H561.186C562.049 397.008 562.748 396.309 562.748 395.447C562.748 394.586 562.049 393.887 561.186 393.887Z" fill="white"/>
<path d="M546.179 386.583H543.335C542.473 386.583 541.773 387.282 541.773 388.144C541.773 389.006 542.473 389.704 543.335 389.704H546.179C547.042 389.704 547.741 389.006 547.741 388.144C547.741 387.282 547.042 386.583 546.179 386.583Z" fill="white"/>
<path d="M578.71 386.583H575.865C575.003 386.583 574.304 387.282 574.304 388.144C574.304 389.006 575.003 389.704 575.865 389.704H578.71C579.572 389.704 580.271 389.006 580.271 388.144C580.271 387.282 579.572 386.583 578.71 386.583Z" fill="white"/>
<path d="M587.927 386.583H585.082C584.22 386.583 583.521 387.282 583.521 388.144C583.521 389.006 584.22 389.704 585.082 389.704H587.927C588.789 389.704 589.488 389.006 589.488 388.144C589.488 387.282 588.789 386.583 587.927 386.583Z" fill="white"/>
<path d="M569.861 386.844H552.183C551.321 386.844 550.622 387.542 550.622 388.404C550.622 389.266 551.321 389.964 552.183 389.964H569.861C570.724 389.964 571.423 389.266 571.423 388.404C571.423 387.542 570.724 386.844 569.861 386.844Z" fill="white"/>
<path d="M505.033 490.261L491.68 469.169L533.592 435.781L550.891 416.628C553.139 414.14 556 412.285 559.19 411.248C562.38 410.211 565.786 410.029 569.068 410.72C572.351 411.411 575.394 412.95 577.894 415.185C580.394 417.419 582.264 420.27 583.317 423.453C584.876 428.17 584.54 433.307 582.381 437.781C580.222 442.255 576.408 445.716 571.744 447.433L544.389 457.504L505.033 490.261Z" fill="#FFB6B6"/>
<path d="M191.734 337.329V439.843H263.6V337.329C263.602 336.591 263.366 335.873 262.929 335.28C262.491 334.686 261.875 334.248 261.17 334.03C260.837 333.921 260.489 333.867 260.14 333.87H195.205C194.749 333.869 194.299 333.958 193.878 334.132C193.457 334.305 193.074 334.56 192.752 334.881C192.43 335.202 192.174 335.583 191.999 336.003C191.824 336.424 191.734 336.874 191.734 337.329V337.329ZM219.78 372.553C219.799 370.532 220.616 368.6 222.052 367.178C223.489 365.755 225.43 364.957 227.452 364.957C229.474 364.957 231.415 365.755 232.852 367.178C234.288 368.6 235.105 370.532 235.124 372.553V384.448C235.113 386.474 234.301 388.414 232.863 389.843C231.425 391.273 229.48 392.075 227.452 392.075C225.424 392.075 223.479 391.273 222.041 389.843C220.603 388.414 219.791 386.474 219.78 384.448V372.553Z" fill="#2F2E41"/>
<path d="M191.514 436.564V446.45C191.515 446.962 191.719 447.453 192.08 447.816C192.442 448.179 192.932 448.385 193.444 448.389H261.89C262.403 448.386 262.894 448.181 263.256 447.817C263.617 447.454 263.82 446.962 263.82 446.45V436.564H191.514Z" fill="#3F3D56"/>
<path d="M78.678 182.878V370.054C78.6799 372.439 79.6289 374.726 81.3167 376.413C83.0045 378.1 85.2931 379.048 87.68 379.05H365.244C367.63 379.048 369.919 378.1 371.607 376.413C373.295 374.726 374.244 372.439 374.246 370.054V182.878C374.24 180.495 373.289 178.211 371.602 176.527C369.915 174.843 367.628 173.896 365.244 173.893H87.68C85.2952 173.896 83.0088 174.843 81.3215 176.527C79.6342 178.211 78.6837 180.495 78.678 182.878Z" fill="#3F3D56"/>
<path d="M85.1895 185.207V367.745C85.1917 369.02 85.6992 370.241 86.601 371.142C87.5028 372.043 88.7253 372.551 90.0006 372.553H362.933C364.208 372.551 365.431 372.043 366.333 371.142C367.234 370.241 367.742 369.02 367.744 367.745V185.207C367.744 183.931 367.237 182.708 366.335 181.804C365.433 180.901 364.21 180.392 362.933 180.39H90.0006C88.7237 180.392 87.5001 180.901 86.5982 181.804C85.6962 182.708 85.1896 183.931 85.1895 185.207Z" fill="white"/>
<path d="M135.841 447.719C136.119 448.067 136.472 448.348 136.874 448.54C137.276 448.732 137.716 448.831 138.162 448.829H300.539C300.983 448.828 301.421 448.729 301.822 448.537C302.223 448.346 302.576 448.068 302.856 447.724C303.135 447.379 303.335 446.976 303.439 446.545C303.544 446.114 303.551 445.665 303.459 445.23L300.939 433.266C300.834 432.778 300.609 432.324 300.284 431.945C299.96 431.566 299.545 431.274 299.078 431.097C298.741 430.964 298.381 430.896 298.018 430.897H140.672C140.309 430.896 139.95 430.964 139.612 431.097C139.145 431.274 138.731 431.566 138.406 431.945C138.081 432.324 137.856 432.778 137.752 433.266L135.231 445.23C135.141 445.664 135.149 446.113 135.255 446.543C135.361 446.974 135.561 447.376 135.841 447.719Z" fill="#2F2E41"/>
<path d="M354.075 205.535H98.6937C98.4282 205.529 98.1757 205.42 97.99 205.23C97.8044 205.04 97.7004 204.785 97.7004 204.52C97.7004 204.255 97.8044 204 97.99 203.81C98.1757 203.621 98.4282 203.511 98.6937 203.505H354.075C354.341 203.511 354.593 203.621 354.779 203.81C354.965 204 355.069 204.255 355.069 204.52C355.069 204.785 354.965 205.04 354.779 205.23C354.593 205.42 354.341 205.529 354.075 205.535V205.535Z" fill="#3F3D56"/>
<path d="M116.078 198.323C119.365 198.323 122.03 195.601 122.03 192.243C122.03 188.885 119.365 186.163 116.078 186.163C112.791 186.163 110.126 188.885 110.126 192.243C110.126 195.601 112.791 198.323 116.078 198.323Z" fill="#3F3D56"/>
<path d="M136.639 198.323C139.926 198.323 142.59 195.601 142.59 192.243C142.59 188.885 139.926 186.163 136.639 186.163C133.352 186.163 130.687 188.885 130.687 192.243C130.687 195.601 133.352 198.323 136.639 198.323Z" fill="#3F3D56"/>
<path d="M157.199 198.323C160.486 198.323 163.151 195.601 163.151 192.243C163.151 188.885 160.486 186.163 157.199 186.163C153.912 186.163 151.248 188.885 151.248 192.243C151.248 195.601 153.912 198.323 157.199 198.323Z" fill="#3F3D56"/>
<path d="M341.695 187.666H327.091C326.803 187.673 326.528 187.792 326.326 187.999C326.124 188.205 326.011 188.482 326.011 188.771C326.011 189.059 326.124 189.336 326.326 189.543C326.528 189.749 326.803 189.869 327.091 189.875H341.695C341.985 189.871 342.262 189.753 342.466 189.546C342.67 189.34 342.784 189.061 342.784 188.771C342.784 188.481 342.67 188.202 342.466 187.995C342.262 187.789 341.985 187.67 341.695 187.666Z" fill="#3F3D56"/>
<path d="M341.695 191.814H327.091C326.802 191.821 326.527 191.94 326.325 192.146C326.123 192.353 326.01 192.63 326.01 192.919C326.01 193.208 326.123 193.485 326.325 193.691C326.527 193.898 326.802 194.017 327.091 194.023H341.695C341.985 194.02 342.263 193.902 342.468 193.695C342.672 193.489 342.787 193.21 342.787 192.919C342.787 192.628 342.672 192.349 342.468 192.143C342.263 191.936 341.985 191.818 341.695 191.814V191.814Z" fill="#3F3D56"/>
<path d="M341.695 195.963H327.091C326.803 195.969 326.528 196.089 326.326 196.295C326.124 196.501 326.011 196.778 326.011 197.067C326.011 197.356 326.124 197.633 326.326 197.839C326.528 198.045 326.803 198.165 327.091 198.172H341.695C341.985 198.167 342.262 198.049 342.466 197.843C342.67 197.636 342.784 197.357 342.784 197.067C342.784 196.777 342.67 196.498 342.466 196.291C342.262 196.085 341.985 195.967 341.695 195.963V195.963Z" fill="#3F3D56"/>
<path d="M693.754 440.903C694.195 442.185 695.031 443.294 696.142 444.072C697.253 444.85 698.583 445.256 699.939 445.232L726.437 444.55C727.803 444.524 729.124 444.056 730.203 443.217C731.281 442.378 732.058 441.213 732.419 439.895L736.169 399.826C737.499 400.428 738.948 400.726 740.408 400.697C741.676 400.665 742.926 400.384 744.086 399.869C745.246 399.354 746.293 398.617 747.168 397.698C748.042 396.779 748.727 395.697 749.183 394.513C749.639 393.33 749.858 392.068 749.826 390.8C749.794 389.532 749.512 388.283 748.998 387.124C748.483 385.965 747.744 384.919 746.825 384.045C745.905 383.171 744.822 382.487 743.638 382.031C742.454 381.575 741.191 381.357 739.923 381.389C739.339 381.387 738.757 381.447 738.186 381.569C737.565 380.898 736.811 380.364 735.971 380.002C735.132 379.64 734.225 379.458 733.311 379.467L692.551 380.519C692.213 380.531 691.877 380.573 691.546 380.644C690.652 380.81 689.804 381.166 689.059 381.688C688.315 382.209 687.691 382.884 687.229 383.666C686.767 384.449 686.478 385.322 686.382 386.225C686.286 387.129 686.385 388.042 686.671 388.905L693.754 440.903ZM736.938 397.105L739.606 387.557C739.91 386.454 739.917 385.291 739.626 384.184C739.756 384.184 739.87 384.122 740 384.122C741.829 384.084 743.599 384.773 744.921 386.037C746.243 387.301 747.01 389.038 747.053 390.866C747.095 392.694 746.411 394.465 745.15 395.79C743.888 397.114 742.152 397.885 740.323 397.933C739.14 397.97 737.97 397.684 736.938 397.105Z" fill="#2F2E41"/>
<path d="M691.546 380.644C692.414 385.605 702.177 389.094 713.917 388.487C724.712 387.99 733.539 384.202 735.156 379.713C734.557 379.536 733.935 379.453 733.311 379.467L692.551 380.519C692.213 380.531 691.877 380.573 691.546 380.644V380.644Z" fill="#3F3D56"/>
<path d="M716.068 418.884C716.122 418.871 716.173 418.848 716.219 418.818L721.974 415.054C722.043 415.009 722.1 414.947 722.14 414.874C722.179 414.801 722.2 414.719 722.2 414.636C722.2 414.553 722.18 414.471 722.14 414.398C722.101 414.325 722.043 414.263 721.974 414.218L715.993 410.303C715.938 410.267 715.876 410.242 715.812 410.229C715.747 410.217 715.681 410.217 715.616 410.23C715.552 410.244 715.49 410.27 715.436 410.307C715.382 410.344 715.335 410.391 715.299 410.446C715.263 410.501 715.238 410.562 715.226 410.627C715.214 410.692 715.214 410.758 715.228 410.823C715.241 410.887 715.267 410.948 715.305 411.002C715.342 411.056 715.389 411.103 715.445 411.139L720.787 414.635L715.672 417.982C715.573 418.046 715.5 418.144 715.466 418.257C715.432 418.371 715.44 418.492 715.487 418.601C715.535 418.709 715.62 418.797 715.726 418.849C715.832 418.901 715.953 418.913 716.068 418.884H716.068Z" fill="white"/>
<path d="M706.979 419.303C707.076 419.279 707.163 419.226 707.229 419.152C707.296 419.078 707.339 418.985 707.352 418.887C707.366 418.788 707.349 418.688 707.305 418.598C707.261 418.509 707.192 418.435 707.105 418.385L701.801 415.346L706.928 411.541C706.981 411.502 707.025 411.452 707.059 411.396C707.092 411.34 707.115 411.278 707.124 411.213C707.134 411.148 707.131 411.082 707.115 411.018C707.099 410.954 707.07 410.895 707.031 410.842C706.992 410.789 706.943 410.745 706.886 410.711C706.83 410.678 706.768 410.655 706.703 410.646C706.638 410.636 706.572 410.639 706.508 410.655C706.444 410.671 706.384 410.7 706.332 410.739L700.592 415C700.525 415.049 700.472 415.114 700.437 415.189C700.402 415.265 700.386 415.347 700.391 415.43C700.395 415.513 700.421 415.593 700.465 415.664C700.508 415.734 700.569 415.793 700.641 415.834L706.608 419.252C706.72 419.317 706.853 419.335 706.979 419.303V419.303Z" fill="white"/>
<path d="M715.496 422.183C715.544 422.171 715.59 422.151 715.633 422.125C715.689 422.091 715.738 422.046 715.777 421.993C715.816 421.94 715.844 421.88 715.859 421.816C715.875 421.752 715.878 421.686 715.867 421.621C715.857 421.556 715.835 421.494 715.8 421.438L707.643 408.036C707.574 407.923 707.463 407.842 707.334 407.811C707.205 407.78 707.069 407.801 706.956 407.87C706.843 407.939 706.761 408.05 706.73 408.178C706.699 408.307 706.72 408.443 706.788 408.556L714.946 421.958C715.001 422.05 715.085 422.121 715.184 422.161C715.283 422.201 715.392 422.209 715.496 422.183Z" fill="white"/>
<path d="M256.898 260.71H212.697C210.894 260.71 209.432 262.17 209.432 263.972V268.288C209.432 270.09 210.894 271.55 212.697 271.55H256.898C258.701 271.55 260.163 270.09 260.163 268.288V263.972C260.163 262.17 258.701 260.71 256.898 260.71Z" fill="#606060"/>
<path d="M282.663 282.391H186.933C185.13 282.391 183.668 283.852 183.668 285.654V289.969C183.668 291.771 185.13 293.232 186.933 293.232H282.663C284.466 293.232 285.928 291.771 285.928 289.969V285.654C285.928 283.852 284.466 282.391 282.663 282.391Z" fill="#E6E6E6"/>
<path d="M282.663 304.073H186.933C185.13 304.073 183.668 305.534 183.668 307.336V311.651C183.668 313.453 185.13 314.914 186.933 314.914H282.663C284.466 314.914 285.928 313.453 285.928 311.651V307.336C285.928 305.534 284.466 304.073 282.663 304.073Z" fill="#E6E6E6"/>
<path d="M290.778 376.676L290.995 377.36L291.006 377.383L297.533 397.212L305.041 420.063L319.167 463.005L319.303 469.675V469.698L320.353 523.358L317.444 530.633L320.718 542.56C320.718 542.56 319.212 524.531 311.134 534.885C306.558 540.769 301.207 546.789 296.814 552.433C303.215 555.022 309.719 557.363 316.325 559.457C317.752 559.913 319.189 560.347 320.627 560.78C320.935 560.871 321.243 560.962 321.551 561.054C343.451 567.526 366.091 571.162 388.918 571.875C390.104 571.909 391.268 571.932 392.398 571.954C392.797 571.966 393.185 571.977 393.573 571.977C394.851 571.989 396.117 572 397.395 572C399.974 572 402.541 571.962 405.097 571.886C424.015 571.353 442.822 568.811 461.202 564.303C461.076 556.721 460.734 547.861 460.243 538.397C460.015 533.756 454.892 528.727 454.584 523.87C454.367 520.221 458.965 516.789 458.726 513.083C457.174 490.267 455.234 499.025 453.796 482.868C453.648 481.283 453.511 479.766 453.386 478.318C452.461 467.942 451.822 461.454 451.822 461.454L457.961 422.788L467.603 362.081L466.861 360.861L466.028 360.45L415.173 335.296L412.411 328.227C411.607 326.19 410.211 324.44 408.403 323.203C406.596 321.965 404.459 321.297 402.268 321.283L368.767 321.146C367.028 321.138 365.313 321.545 363.763 322.332C362.213 323.119 360.874 324.264 359.856 325.673L350.784 338.227L290.778 376.676Z" fill="#3F3D56"/>
<path d="M326.891 453.449L319.303 469.675L314.123 480.758L305.212 527.383L300.75 532.115L296.928 515.364L256.921 524.241C255.609 516.954 256.57 524.487 255.76 516.494C255.988 516.266 256.227 516.038 256.467 515.81C257.106 515.217 257.642 514.658 257.631 514.122C257.174 486.551 258.544 439.629 269.977 411.203C271.767 406.562 274.128 402.161 277.006 398.101C277.234 397.794 277.451 397.486 277.667 397.178C282.939 389.8 286.271 382.537 290.995 377.372V377.36C291.024 377.337 291.051 377.31 291.074 377.28C291.092 377.272 291.107 377.26 291.12 377.246L323.571 360.051L324.963 399.139L325.956 427.235L326.891 453.449Z" fill="#3F3D56"/>
<path d="M443.903 458.058L453.381 478.324L456.689 485.382L465.598 532.002L470.045 536.723L473.876 519.975L475.676 519.606L508.142 512.887L517.605 542.919C519.738 539.368 520.578 535.19 519.984 531.091C519.389 526.992 517.397 523.224 514.343 520.424C513.697 519.84 513.158 519.271 513.174 518.733C513.712 486.304 511.727 427.09 493.802 402.719C488.109 394.985 484.693 387.281 479.723 381.9C479.708 381.884 479.708 381.869 479.692 381.869L467.598 362.08L466.86 360.865L466.029 360.45L443.903 458.058Z" fill="#3F3D56"/>
<path d="M386.485 311.618C411.099 311.618 431.053 291.678 431.053 267.08C431.053 242.482 411.099 222.542 386.485 222.542C361.87 222.542 341.916 242.482 341.916 267.08C341.916 291.678 361.87 311.618 386.485 311.618Z" fill="#FFB6B6"/>
<path d="M446.724 235.97C446.379 235.602 445.963 235.306 445.5 235.102C445.038 234.897 444.539 234.788 444.034 234.781L444.704 232.922C444.923 232.336 444.982 231.703 444.875 231.087C444.768 230.471 444.5 229.895 444.097 229.417C443.694 228.939 443.171 228.576 442.581 228.367C441.992 228.157 441.358 228.108 440.743 228.224L438.303 228.694L438.533 227.064C438.621 226.458 438.549 225.838 438.326 225.267C438.102 224.697 437.733 224.194 437.255 223.809C436.778 223.423 436.209 223.169 435.603 223.07C434.997 222.972 434.377 223.032 433.802 223.246C433.278 223.452 432.716 223.538 432.155 223.498C431.594 223.459 431.05 223.294 430.561 223.016C430.07 222.747 429.644 222.374 429.312 221.924C428.981 221.473 428.751 220.956 428.64 220.407L427.79 216.309L427.7 216.089C423.559 209.192 415.597 204.175 405.855 202.336C397.183 200.686 388.291 201.526 379.719 202.316C376.318 202.635 372.477 202.995 369.277 204.954C366.556 206.634 364.256 209.992 364.726 213.381C356.274 210.792 347.212 215.959 342.721 222.476C337.399 230.233 336.529 239.949 336.389 247.545C336.009 265.517 339.72 280.22 347.392 291.256C347.952 292.055 348.092 293.724 349.202 294.284L348.972 293.914C350.212 294.534 351.473 295.534 351.003 296.603C349.652 299.682 358.624 306.489 364.946 308.738C376.478 312.846 391.812 312.496 402.594 311.017L402.974 308.468C406.865 307.938 409.606 306.928 410.376 305.349C411.736 304.19 412.897 303.15 413.907 302.191L413.917 302.181C413.937 302.161 413.977 302.131 413.997 302.111C418.868 297.443 419.998 294.784 420.508 290.736C420.999 286.768 420.128 282.739 419.238 279.111C437.982 282.01 411.856 259.16 429.32 254.742C429.521 254.68 429.724 254.63 429.931 254.592C430.441 254.472 430.951 254.352 431.441 254.212C433.803 253.571 436.066 252.606 438.163 251.344C443.044 248.375 444.654 244.437 447.175 239.999C447.538 239.367 447.691 238.635 447.61 237.911C447.529 237.186 447.219 236.507 446.724 235.97V235.97Z" fill="#2F2E41"/>
<path d="M544.117 461.229C544.107 462.978 544.087 465.427 544.007 468.456C543.997 468.875 543.987 469.305 543.977 469.745C543.847 475.313 543.717 479.98 543.507 485.168C543.497 485.528 543.487 485.878 543.467 486.238C543.186 493.474 542.746 501.901 541.986 515.245C540.576 539.893 538.115 518.633 535.645 527.279C535.525 527.709 535.395 528.219 535.275 528.818C534.901 530.994 534.269 533.118 533.394 535.146C532.084 535.925 530.734 536.675 529.403 537.425C525.612 539.534 521.762 541.563 517.881 543.492C515.7 544.571 513.51 545.631 511.309 546.65C510.959 546.81 510.619 546.97 510.279 547.12C499.011 552.329 487.397 556.757 475.521 560.374C473.201 561.074 470.89 561.754 468.55 562.383C466.109 563.063 463.668 563.703 461.198 564.303C442.819 568.811 424.012 571.355 405.095 571.889C402.544 571.969 399.974 571.999 397.393 571.999C396.113 571.999 394.853 571.989 393.572 571.979C393.182 571.979 392.792 571.969 392.402 571.959C391.272 571.929 390.102 571.909 388.921 571.879C366.095 571.168 343.455 567.529 321.556 561.054L320.626 560.784C319.185 560.344 317.755 559.914 316.325 559.455C309.723 557.366 303.218 555.027 296.81 552.438C291.919 550.469 287.085 548.356 282.307 546.101C282.263 546.089 282.222 546.069 282.187 546.041C281.187 545.581 280.176 545.101 279.176 544.611C279.046 544.541 278.906 544.471 278.766 544.401C275.035 542.582 271.344 540.676 267.694 538.684C264.623 531.637 260.302 530.288 257.621 524.091C256.841 522.249 256.277 520.324 255.941 518.353C255.941 518.333 255.931 518.313 255.931 518.283C256.211 522.002 254.741 511.686 255.921 518.243C255.911 518.123 255.901 517.993 255.891 517.843C255.861 517.484 255.821 517.044 255.761 516.494C252.33 483.019 252.55 444.736 251.06 413.191C250.96 411.152 250.856 409.199 250.75 407.333C250.72 406.713 250.68 406.104 250.64 405.504C250.71 405.324 250.79 405.134 250.88 404.954C250.899 404.902 250.922 404.852 250.95 404.804C250.979 404.742 251.013 404.682 251.05 404.624C251.07 404.594 251.1 404.554 251.12 404.524C251.134 404.49 251.151 404.457 251.17 404.425C251.26 404.285 251.36 404.135 251.47 403.995C251.52 403.935 251.56 403.885 251.61 403.835C251.644 403.784 251.685 403.737 251.73 403.695C251.761 403.647 251.798 403.603 251.84 403.565C251.88 403.525 251.92 403.475 251.97 403.425C251.991 403.394 252.018 403.366 252.05 403.345C252.129 403.254 252.216 403.171 252.31 403.095C252.667 402.767 253.048 402.466 253.45 402.196C253.59 402.106 253.74 402.016 253.88 401.916C254.888 401.313 255.95 400.805 257.051 400.396C257.431 400.256 257.811 400.127 258.221 399.987C258.371 399.947 258.511 399.897 258.661 399.847C258.882 399.777 259.102 399.707 259.332 399.657C260.472 399.317 261.702 399.027 263.032 398.757C263.193 398.727 263.363 398.697 263.533 398.657C263.773 398.607 264.023 398.567 264.273 398.527C264.613 398.467 264.963 398.407 265.313 398.347C268.284 397.878 271.654 397.528 275.375 397.298C275.725 397.278 276.075 397.258 276.426 397.238C276.836 397.218 277.246 397.198 277.666 397.178C278.016 397.158 278.376 397.148 278.736 397.138C279.086 397.118 279.446 397.108 279.816 397.098C280.827 397.068 281.867 397.038 282.927 397.018C285.948 396.958 289.128 396.978 292.469 397.048C294.02 397.088 295.6 397.128 297.22 397.198C297.33 397.198 297.43 397.208 297.53 397.208C298.941 397.258 300.361 397.318 301.821 397.398C302.842 397.448 303.872 397.498 304.902 397.558C305.872 397.618 306.852 397.678 307.843 397.748C308.613 397.788 309.383 397.848 310.163 397.898C310.823 397.947 311.484 397.997 312.144 398.037L313.044 398.097C313.534 398.137 314.024 398.167 314.524 398.217C315.624 398.307 316.725 398.397 317.845 398.487C318.955 398.587 320.085 398.687 321.216 398.787C322.346 398.887 323.486 398.997 324.627 399.107C324.747 399.117 324.857 399.127 324.967 399.137C326.007 399.247 327.047 399.347 328.097 399.457C328.337 399.477 328.587 399.497 328.827 399.527C329.829 399.627 330.85 399.745 331.86 399.852C332.17 399.886 332.479 399.918 332.79 399.952C333.581 400.038 334.362 400.113 335.159 400.206C336.209 400.326 337.279 400.436 338.32 400.576C339.13 400.666 339.94 400.756 340.75 400.856C342.02 401.006 343.311 401.166 344.601 401.336C345.091 401.396 345.581 401.456 346.071 401.526C349.752 401.986 353.473 402.495 357.254 403.025C362.985 403.835 368.807 404.714 374.668 405.664C380.539 406.614 386.444 407.616 392.382 408.673C393.882 408.943 395.383 409.212 396.893 409.492C397.573 409.622 398.253 409.752 398.933 409.882C400.094 410.092 401.254 410.312 402.414 410.532C403.574 410.752 404.735 410.972 405.895 411.201C407.275 411.471 408.666 411.741 410.046 412.011C419.138 413.81 428.18 415.729 437.002 417.739C438.452 418.068 439.903 418.408 441.343 418.738C444.224 419.408 447.078 420.087 449.905 420.777C450.685 420.957 451.455 421.147 452.226 421.337C454.146 421.817 456.066 422.296 457.957 422.786L458.287 422.876C459.677 423.216 461.038 423.566 462.398 423.926C465.609 424.765 468.766 425.615 471.87 426.475C473.931 427.044 475.968 427.621 477.982 428.204C480.992 429.073 483.943 429.953 486.814 430.843C487.524 431.063 488.234 431.282 488.934 431.492C491.034 432.142 493.105 432.802 495.115 433.461C496.716 433.981 498.276 434.511 499.816 435.041C501.357 435.57 502.867 436.1 504.348 436.63C505.298 436.97 506.238 437.33 507.178 437.67C508.528 438.169 509.859 438.669 511.159 439.169C511.559 439.319 511.949 439.479 512.339 439.629C512.589 439.739 512.829 439.829 513.07 439.928C513.54 440.118 514.02 440.298 514.48 440.488C514.95 440.668 515.41 440.858 515.87 441.058C516.32 441.238 516.78 441.428 517.22 441.618C517.671 441.798 518.111 441.988 518.551 442.187C518.921 442.337 519.281 442.497 519.631 442.657C520.341 442.967 521.051 443.277 521.742 443.597C522.082 443.757 522.422 443.907 522.762 444.067L523.542 444.426C523.652 444.486 523.762 444.536 523.872 444.586C524.122 444.706 524.382 444.836 524.632 444.956C525.212 445.226 525.782 445.516 526.343 445.786C527.093 446.166 527.823 446.546 528.523 446.915C529.233 447.295 529.923 447.675 530.584 448.045C530.694 448.105 530.794 448.165 530.904 448.225C531.054 448.305 531.204 448.395 531.354 448.475C531.864 448.765 532.354 449.064 532.844 449.354C533.804 449.944 534.714 450.524 535.565 451.103C535.755 451.233 535.935 451.363 536.125 451.483C536.755 451.933 537.355 452.373 537.915 452.823C537.915 452.833 537.915 452.833 537.925 452.833C538.115 452.973 538.295 453.123 538.475 453.262C538.625 453.402 538.785 453.522 538.935 453.662C539.456 454.112 539.936 454.542 540.376 454.982C540.523 455.117 540.664 455.261 540.796 455.412C540.854 455.46 540.908 455.513 540.956 455.571C541.156 455.771 541.336 455.971 541.506 456.171C541.532 456.199 541.556 456.229 541.576 456.261C541.816 456.541 542.036 456.821 542.246 457.101C542.346 457.241 542.456 457.381 542.546 457.521C542.666 457.69 542.786 457.87 542.886 458.04C542.976 458.18 543.056 458.33 543.136 458.47C543.349 458.83 543.529 459.208 543.677 459.6C543.789 459.865 543.879 460.139 543.947 460.419C544.022 460.685 544.079 460.955 544.117 461.229V461.229Z" fill="#2F2E41"/>
<path opacity="0.2" d="M544.117 461.229C544.107 462.978 544.087 465.427 544.007 468.456C543.997 468.876 543.977 469.305 543.967 469.745C543.867 473.993 543.717 479.241 543.507 485.168C543.497 485.528 543.487 485.878 543.467 486.238C543.186 493.474 542.746 501.901 541.986 515.245C540.576 539.894 538.115 518.633 535.645 527.279C528.783 523.061 521.261 518.643 513.22 514.105C511.769 513.285 510.306 512.463 508.829 511.636C492.745 502.67 474.781 493.274 456.027 483.969C455.286 483.599 454.536 483.229 453.796 482.869C410.836 461.649 363.946 441.008 325.957 427.234C318.625 424.575 311.624 422.177 305.042 420.067C291.179 415.639 279.196 412.541 269.974 411.201C260.372 409.802 253.74 410.302 251.06 413.191C250.96 411.151 250.856 409.199 250.75 407.333C250.71 406.713 250.67 406.104 250.63 405.504C250.691 405.339 250.772 405.182 250.849 405.024C250.86 405.001 250.868 404.977 250.88 404.954C250.899 404.902 250.922 404.852 250.95 404.804C250.979 404.742 251.013 404.682 251.05 404.624C251.082 404.554 251.122 404.487 251.17 404.424C251.26 404.285 251.36 404.135 251.47 403.995C251.551 403.89 251.638 403.79 251.73 403.695C251.761 403.647 251.798 403.603 251.84 403.565C251.88 403.525 251.92 403.475 251.97 403.425C251.991 403.393 252.018 403.366 252.05 403.345C252.129 403.254 252.216 403.171 252.31 403.095C252.667 402.767 253.048 402.466 253.45 402.196C253.59 402.106 253.74 402.016 253.88 401.916C254.888 401.313 255.95 400.804 257.051 400.396C257.431 400.256 257.811 400.126 258.221 399.986C258.371 399.947 258.511 399.897 258.661 399.847C258.881 399.777 259.102 399.707 259.332 399.657C260.472 399.317 261.702 399.027 263.032 398.757C263.432 398.677 263.853 398.597 264.273 398.527C264.613 398.467 264.963 398.407 265.313 398.347C268.284 397.877 271.654 397.528 275.375 397.298C275.725 397.278 276.075 397.258 276.425 397.238C276.836 397.218 277.246 397.198 277.666 397.178C278.016 397.158 278.376 397.148 278.736 397.138C279.086 397.118 279.446 397.108 279.816 397.098C280.827 397.068 281.867 397.038 282.927 397.018C285.948 396.968 289.128 396.988 292.469 397.058C294.02 397.088 295.6 397.138 297.22 397.208C297.32 397.208 297.43 397.218 297.53 397.218C298.941 397.258 300.371 397.328 301.821 397.398C302.842 397.448 303.872 397.498 304.902 397.558C305.872 397.618 306.852 397.678 307.843 397.748C308.613 397.787 309.383 397.847 310.163 397.897C310.823 397.947 311.483 397.997 312.144 398.037C312.934 398.097 313.724 398.157 314.524 398.217C315.624 398.307 316.725 398.397 317.845 398.487C318.955 398.587 320.085 398.687 321.216 398.787C322.346 398.887 323.486 398.997 324.626 399.107C324.746 399.117 324.857 399.127 324.967 399.137C326.007 399.247 327.047 399.347 328.097 399.457C333.919 400.046 339.91 400.736 346.071 401.526C349.752 401.996 353.48 402.499 357.254 403.035C362.985 403.845 368.807 404.724 374.668 405.664C380.539 406.613 386.444 407.616 392.382 408.673C393.882 408.942 395.383 409.212 396.893 409.492C398.733 409.832 400.574 410.179 402.414 410.532C403.575 410.752 404.735 410.972 405.895 411.201C407.275 411.471 408.666 411.741 410.046 412.011C419.138 413.81 428.18 415.729 437.002 417.738C438.453 418.068 439.903 418.408 441.343 418.738C444.224 419.408 447.078 420.087 449.905 420.777C450.685 420.967 451.455 421.157 452.226 421.347C454.156 421.827 456.067 422.306 457.957 422.786V422.796C458.067 422.816 458.177 422.846 458.287 422.876C459.667 423.226 461.038 423.576 462.398 423.936C465.609 424.775 468.766 425.622 471.87 426.475C473.931 427.054 475.971 427.624 477.982 428.204C480.992 429.083 483.943 429.963 486.814 430.843C487.524 431.062 488.234 431.282 488.934 431.492C491.035 432.152 493.095 432.808 495.115 433.461C496.716 433.981 498.276 434.511 499.817 435.041C501.357 435.57 502.867 436.1 504.348 436.63C505.308 436.97 506.248 437.32 507.178 437.66C508.539 438.159 509.859 438.659 511.159 439.169C511.559 439.319 511.949 439.479 512.339 439.629C513.07 439.909 513.78 440.198 514.48 440.488C514.95 440.668 515.41 440.858 515.87 441.058C516.32 441.238 516.78 441.428 517.22 441.618C517.671 441.798 518.111 441.988 518.551 442.188C518.921 442.337 519.281 442.497 519.631 442.657C520.341 442.967 521.051 443.277 521.742 443.597C522.082 443.757 522.422 443.907 522.762 444.067L523.542 444.426C523.652 444.486 523.762 444.536 523.872 444.586C524.722 444.986 525.542 445.386 526.343 445.786C527.093 446.166 527.823 446.546 528.523 446.915C529.353 447.355 530.143 447.785 530.904 448.225C531.054 448.305 531.204 448.395 531.354 448.475C531.864 448.765 532.354 449.064 532.844 449.354C533.804 449.944 534.715 450.524 535.565 451.103C536.405 451.683 537.185 452.253 537.915 452.823C537.915 452.833 537.915 452.833 537.925 452.833C538.275 453.112 538.615 453.392 538.935 453.662C539.456 454.112 539.936 454.542 540.376 454.982C540.523 455.117 540.664 455.261 540.796 455.411C540.854 455.46 540.908 455.513 540.956 455.571C541.166 455.801 541.376 456.031 541.576 456.261C541.816 456.541 542.036 456.821 542.246 457.101C542.346 457.241 542.456 457.381 542.546 457.52C542.666 457.69 542.786 457.87 542.886 458.04C542.976 458.18 543.056 458.33 543.137 458.47C543.349 458.83 543.529 459.208 543.677 459.6C543.786 459.866 543.876 460.14 543.947 460.419C544.022 460.685 544.079 460.955 544.117 461.229V461.229Z" fill="black"/>
</g>
<defs>
<clipPath id="clip0_1_2">
<rect width="787" height="572" fill="white"/>
</clipPath>
</defs>
</svg>
