<svg width="3840" height="2160" viewBox="0 0 3840 2160" fill="none" xmlns="http://www.w3.org/2000/svg">
<path d="M3840 0H0V2160H3840V0Z" fill="#E1DFDF"/>
<rect x="90" y="75" width="3659" height="2010" rx="94" fill="#B7B7B7"/>
<g clip-path="url(#clip0_54_2)">
<path d="M2328.62 535H1510.38C1435.06 535 1374 596.057 1374 671.375V1489.62C1374 1564.94 1435.06 1626 1510.38 1626H2328.62C2403.94 1626 2465 1564.94 2465 1489.62V671.375C2465 596.057 2403.94 535 2328.62 535Z" fill="white"/>
<path d="M1652.98 924.214L1593.56 1106.79H1710.98L1652.98 924.214ZM1451.8 1285.06V1246.4L1509.79 1237.81L1655.13 813.955H1728.87L1875.65 1242.82L1919.32 1247.83V1285.06H1698.09V1247.83L1753.22 1240.67L1723.86 1148.31H1579.95L1551.32 1237.81L1605.73 1246.4V1285.06H1451.8ZM2131.88 856.197H2103.24C2102.76 885.791 2102.28 915.384 2101.81 944.977C2101.81 974.093 2101.81 1002.02 2101.81 1028.75H2129.01C2152.88 1028.75 2171.49 1024.69 2184.86 1016.57C2198.22 1008.46 2207.77 997.72 2213.5 984.356C2219.22 970.991 2222.09 956.672 2222.09 941.398C2222.09 884.597 2192.02 856.197 2131.88 856.197ZM1928.54 853.333V814.671H2161.23C2217.55 814.671 2260.75 825.172 2290.82 846.174C2321.37 867.175 2336.64 896.291 2336.64 933.522C2336.64 949.273 2332.59 965.024 2324.47 980.776C2316.36 996.05 2302.99 1009.65 2284.38 1021.59C2265.76 1033.04 2240.47 1041.39 2208.49 1046.64C2235.69 1049.99 2256.93 1056.67 2272.21 1066.69C2287.48 1076.24 2298.94 1088.89 2306.57 1104.64C2314.21 1119.91 2319.7 1138.77 2323.04 1161.2L2336.64 1240.67L2391.06 1246.4V1285.06C2379.6 1287.45 2370.06 1289.36 2362.42 1290.79C2354.78 1292.7 2347.14 1293.89 2339.51 1294.37C2332.35 1294.85 2323.28 1295.09 2312.3 1295.09C2281.75 1295.09 2257.65 1289.84 2239.99 1279.33C2222.8 1268.83 2212.3 1249.74 2208.49 1222.06L2195.6 1139C2192.26 1115.14 2185.34 1097.48 2174.83 1086.02C2164.81 1074.57 2149.06 1068.84 2127.58 1068.84H2101.81C2101.81 1099.39 2101.81 1128.74 2101.81 1156.9C2102.28 1185.07 2102.76 1212.99 2103.24 1240.67L2159.08 1246.4V1285.06H1928.54V1246.4L1982.24 1240.67C1983.19 1211.56 1983.67 1182.2 1983.67 1152.61C1983.67 1123.01 1983.67 1093.18 1983.67 1063.11V1036.62C1983.67 1007.03 1983.67 977.435 1983.67 947.841C1983.67 917.771 1983.19 888.177 1982.24 859.061L1928.54 853.333Z" fill="#030303"/>
</g>
<defs>
<clipPath id="clip0_54_2">
<rect width="1091" height="1091" fill="white" transform="translate(1374 535)"/>
</clipPath>
</defs>
</svg>
