<svg width="3840" height="2160" viewBox="0 0 3840 2160" fill="none" xmlns="http://www.w3.org/2000/svg">
<rect width="3840" height="2160" fill="url(#paint0_linear_102_29)"/>
<path d="M340 1370.4H3499" stroke="#EDF2F4" stroke-width="10"/>
<path d="M452.765 958.533V1172.85H412.437V958.533H452.765ZM519.289 958.533V990.476H346.647V958.533H519.289ZM546.222 958.533H624.08C640.369 958.533 654.352 960.987 666.026 965.895C677.703 970.8 686.683 978.062 692.962 987.678C699.24 997.295 702.381 1009.12 702.381 1023.15C702.381 1034.24 700.419 1043.86 696.494 1052C692.57 1060.15 687.027 1066.97 679.862 1072.46C672.799 1077.96 664.459 1082.28 654.843 1085.42L642.184 1091.9H573.453L573.157 1059.95H624.523C632.863 1059.95 639.781 1058.48 645.276 1055.54C650.771 1052.59 654.892 1048.52 657.638 1043.32C660.483 1038.12 661.906 1032.18 661.906 1025.51C661.906 1018.35 660.534 1012.16 657.785 1006.96C655.039 1001.66 650.868 997.59 645.276 994.744C639.682 991.899 632.619 990.476 624.08 990.476H586.697V1172.85H546.222V958.533ZM667.205 1172.85L617.605 1076.88L660.435 1076.73L710.622 1170.79V1172.85H667.205ZM823.069 991.064L761.988 1172.85H719.158L799.226 958.533H826.601L823.069 991.064ZM874.139 1172.85L812.766 991.064L809.086 958.533H836.609L917.116 1172.85H874.139ZM871.345 1093.22V1125.16H756.396V1093.22H871.345ZM982.318 958.533V1172.85H941.842V958.533H982.318ZM1162.02 1141.06V1172.85H1054.29V1141.06H1162.02ZM1066.51 958.533V1172.85H1026.03V958.533H1066.51ZM1331.14 1141.06V1172.85H1217.22V1141.06H1331.14ZM1229.58 958.533V1172.85H1189.11V958.533H1229.58ZM1316.27 1047V1078.06H1217.22V1047H1316.27ZM1330.69 958.533V990.476H1217.22V958.533H1330.69ZM1359.25 958.533H1437.1C1453.39 958.533 1467.37 960.987 1479.05 965.895C1490.73 970.8 1499.7 978.062 1505.99 987.678C1512.27 997.295 1515.41 1009.12 1515.41 1023.15C1515.41 1034.24 1513.44 1043.86 1509.52 1052C1505.59 1060.15 1500.05 1066.97 1492.89 1072.46C1485.82 1077.96 1477.48 1082.28 1467.87 1085.42L1455.21 1091.9H1386.47L1386.18 1059.95H1437.55C1445.89 1059.95 1452.8 1058.48 1458.3 1055.54C1463.79 1052.59 1467.91 1048.52 1470.66 1043.32C1473.51 1038.12 1474.93 1032.18 1474.93 1025.51C1474.93 1018.35 1473.56 1012.16 1470.81 1006.96C1468.06 1001.66 1463.89 997.59 1458.3 994.744C1452.71 991.899 1445.64 990.476 1437.1 990.476H1399.72V1172.85H1359.25V958.533ZM1480.23 1172.85L1430.63 1076.88L1473.46 1076.73L1523.65 1170.79V1172.85H1480.23Z" fill="#EDF2F4"/>
<path d="M2198.67 1094.69H2143.48V1062.9H2198.67C2207.7 1062.9 2215.01 1061.42 2220.6 1058.48C2226.3 1055.44 2230.46 1051.32 2233.11 1046.12C2235.76 1040.82 2237.09 1034.78 2237.09 1028.01C2237.09 1021.44 2235.76 1015.3 2233.11 1009.61C2230.46 1003.92 2226.3 999.309 2220.6 995.775C2215.01 992.242 2207.7 990.476 2198.67 990.476H2156.73V1172.85H2116.25V958.533H2198.67C2215.35 958.533 2229.58 961.527 2241.35 967.514C2253.23 973.401 2262.26 981.595 2268.44 992.095C2274.72 1002.5 2277.86 1014.37 2277.86 1027.72C2277.86 1041.55 2274.72 1053.47 2268.44 1063.49C2262.26 1073.49 2253.23 1081.2 2241.35 1086.6C2229.58 1091.99 2215.35 1094.69 2198.67 1094.69ZM2371.61 991.064L2310.53 1172.85H2267.7L2347.77 958.533H2375.14L2371.61 991.064ZM2422.68 1172.85L2361.31 991.064L2357.63 958.533H2385.15L2465.66 1172.85H2422.68ZM2419.89 1093.22V1125.16H2304.94V1093.22H2419.89ZM2487.74 958.533H2565.59C2581.88 958.533 2595.86 960.987 2607.54 965.895C2619.22 970.8 2628.19 978.062 2634.47 987.678C2640.76 997.295 2643.89 1009.12 2643.89 1023.15C2643.89 1034.24 2641.93 1043.86 2638.01 1052C2634.08 1060.15 2628.54 1066.97 2621.38 1072.46C2614.31 1077.96 2605.97 1082.28 2596.36 1085.42L2583.7 1091.9H2514.96L2514.67 1059.95H2566.03C2574.38 1059.95 2581.29 1058.48 2586.79 1055.54C2592.28 1052.59 2596.4 1048.52 2599.15 1043.32C2602 1038.12 2603.42 1032.18 2603.42 1025.51C2603.42 1018.35 2602.05 1012.16 2599.3 1006.96C2596.55 1001.66 2592.38 997.59 2586.79 994.745C2581.2 991.899 2574.13 990.476 2565.59 990.476H2528.21V1172.85H2487.74V958.533ZM2608.72 1172.85L2559.12 1076.88L2601.95 1076.73L2652.14 1170.79V1172.85H2608.72ZM2764.58 991.064L2703.5 1172.85H2660.67L2740.74 958.533H2768.11L2764.58 991.064ZM2815.65 1172.85L2754.28 991.064L2750.6 958.533H2778.12L2858.63 1172.85H2815.65ZM2812.86 1093.22V1125.16H2697.91V1093.22H2812.86ZM2944.73 1172.85H2898.52L2898.81 1141.06H2944.73C2957.19 1141.06 2967.64 1138.31 2976.08 1132.82C2984.52 1127.22 2990.9 1119.22 2995.21 1108.82C2999.53 1098.32 3001.69 1085.76 3001.69 1071.14V1060.1C3001.69 1048.81 3000.46 1038.85 2998.01 1030.22C2995.56 1021.58 2991.93 1014.32 2987.12 1008.43C2982.41 1002.55 2976.57 998.082 2969.6 995.04C2962.64 991.998 2954.64 990.476 2945.61 990.476H2897.63V958.533H2945.61C2959.94 958.533 2972.99 960.939 2984.76 965.747C2996.64 970.555 3006.89 977.474 3015.52 986.503C3024.26 995.432 3030.93 1006.13 3035.54 1018.59C3040.25 1031.05 3042.61 1044.99 3042.61 1060.39V1071.14C3042.61 1086.45 3040.25 1100.38 3035.54 1112.94C3030.93 1125.41 3024.26 1136.1 3015.52 1145.03C3006.89 1153.96 2996.59 1160.83 2984.61 1165.64C2972.65 1170.45 2959.35 1172.85 2944.73 1172.85ZM2921.18 958.533V1172.85H2880.71V958.533H2921.18ZM3120.17 958.533V1172.85H3079.69V958.533H3120.17ZM3276.04 1117.21C3276.04 1113.09 3275.4 1109.41 3274.11 1106.17C3272.93 1102.84 3270.73 1099.84 3267.51 1097.19C3264.37 1094.45 3259.88 1091.8 3254.09 1089.25C3248.43 1086.6 3241.04 1083.85 3232.03 1081C3222.02 1077.86 3212.71 1074.33 3204.06 1070.4C3195.43 1066.48 3187.81 1061.92 3181.24 1056.72C3174.79 1051.51 3169.72 1045.53 3166.08 1038.76C3162.46 1031.89 3160.65 1023.94 3160.65 1014.91C3160.65 1006.08 3162.52 998.03 3166.23 990.771C3170.05 983.509 3175.45 977.278 3182.41 972.075C3189.41 966.778 3197.57 962.705 3207.01 959.86C3216.53 957.014 3227.02 955.591 3238.51 955.591C3254.39 955.591 3268.14 958.485 3279.71 964.276C3291.38 970.064 3300.42 977.914 3306.78 987.826C3313.17 997.738 3316.37 1008.87 3316.37 1021.24H3276.04C3276.04 1014.57 3274.62 1008.68 3271.76 1003.58C3269.01 998.474 3264.79 994.449 3259.1 991.507C3253.52 988.562 3246.44 987.09 3237.91 987.09C3229.68 987.09 3222.8 988.317 3217.32 990.771C3211.92 993.222 3207.85 996.559 3205.08 1000.78C3202.46 1005 3201.13 1009.71 3201.13 1014.91C3201.13 1018.84 3202.04 1022.37 3203.9 1025.51C3205.77 1028.55 3208.58 1031.44 3212.31 1034.19C3216.02 1036.84 3220.63 1039.35 3226.15 1041.7C3231.73 1043.96 3238.21 1046.22 3245.56 1048.47C3257.35 1052 3267.66 1055.93 3276.49 1060.25C3285.41 1064.57 3292.83 1069.47 3298.7 1074.97C3304.67 1080.46 3309.16 1086.64 3312.09 1093.51C3315.13 1100.38 3316.67 1108.18 3316.67 1116.92C3316.67 1126.14 3314.83 1134.39 3311.21 1141.65C3307.56 1148.91 3302.38 1155.09 3295.6 1160.19C3288.85 1165.3 3280.71 1169.17 3271.18 1171.82C3261.75 1174.47 3251.2 1175.8 3239.53 1175.8C3229.13 1175.8 3218.83 1174.42 3208.64 1171.67C3198.51 1168.83 3189.35 1164.61 3181.12 1159.02C3172.86 1153.32 3166.29 1146.16 3161.37 1137.52C3156.46 1128.79 3154.02 1118.59 3154.02 1106.91H3194.65C3194.65 1113.68 3195.74 1119.47 3197.88 1124.28C3200.14 1128.99 3203.27 1132.86 3207.31 1135.91C3211.41 1138.85 3216.23 1141.01 3221.72 1142.38C3227.2 1143.76 3233.14 1144.44 3239.53 1144.44C3247.76 1144.44 3254.54 1143.32 3259.85 1141.06C3265.24 1138.7 3269.25 1135.47 3271.91 1131.34C3274.65 1127.22 3276.04 1122.51 3276.04 1117.21ZM3489.9 1141.06V1172.85H3375.96V1141.06H3489.9ZM3388.35 958.533V1172.85H3347.87V958.533H3388.35ZM3475.01 1047V1078.06H3375.96V1047H3475.01ZM3489.44 958.533V990.476H3375.96V958.533H3489.44Z" fill="#EDF2F4"/>
<path d="M1731.55 814.215C1719.36 828.33 1720.45 849.296 1733.88 860.806C1739.36 865.467 1745.94 867.932 1752.65 868.342C1754.43 872.319 1757.17 875.879 1760.6 878.894C1774.03 890.542 1794.85 888.486 1807.05 874.372C1812.8 867.658 1815.68 859.299 1815.54 851.213C1818.56 849.296 1821.43 846.966 1824.03 844.09C1836.23 829.976 1835.13 809.009 1821.7 797.499C1808.28 785.99 1787.45 787.907 1775.26 802.021C1774.16 803.254 1773.34 804.487 1772.38 805.72C1759.23 798.732 1742.1 801.883 1731.55 814.215Z" fill="#E2BA13"/>
<path d="M1839.38 798.458C1824.58 799.417 1813.35 811.614 1814.17 825.728C1814.58 831.344 1816.77 836.554 1820.34 840.527C1819.1 843.816 1818.55 847.24 1818.69 850.939C1819.51 865.054 1832.25 875.743 1847.05 874.785C1854.18 874.372 1860.34 871.357 1864.87 866.835C1867.61 867.523 1870.62 867.794 1873.63 867.658C1888.43 866.7 1899.67 854.502 1898.85 840.388C1898.02 826.274 1885.28 815.587 1870.48 816.546C1869.25 816.684 1868.02 816.82 1866.78 817.094C1863.49 805.585 1852.26 797.635 1839.38 798.458Z" fill="#EDC92F"/>
<path d="M1712.78 884.923C1712.78 870.124 1701.27 858.066 1687.16 858.066C1681.4 858.066 1676.2 859.986 1671.95 863.272C1668.8 861.765 1665.37 861.08 1661.67 861.08C1647.56 861.08 1636.05 873.139 1636.05 887.937C1636.05 895.064 1638.66 901.506 1642.9 906.299C1642.08 909.042 1641.53 911.918 1641.53 914.933C1641.53 929.732 1653.04 941.79 1667.15 941.79C1681.26 941.79 1692.78 929.732 1692.78 914.933C1692.78 913.7 1692.64 912.467 1692.5 911.234C1704.15 908.494 1712.78 897.804 1712.78 884.923Z" fill="#EFD35B"/>
<path d="M1741.55 899.037C1756.35 898.217 1767.72 886.02 1766.9 871.906C1766.63 866.151 1764.3 861.08 1760.74 856.968C1761.97 853.682 1762.65 850.255 1762.38 846.556C1761.56 832.442 1748.95 821.752 1734.15 822.575C1727.03 822.988 1720.86 826.002 1716.34 830.524C1713.6 829.837 1710.59 829.427 1707.57 829.701C1692.78 830.524 1681.4 842.718 1682.23 856.833C1683.05 870.947 1695.65 881.637 1710.45 880.814C1711.68 880.675 1712.92 880.539 1714.15 880.401C1717.44 891.639 1728.67 899.724 1741.55 899.037Z" fill="#F9E595"/>
<path d="M1966.26 928.912C1981.05 928.089 1992.43 915.891 1991.6 901.777C1991.33 896.022 1989 890.952 1985.44 886.843C1986.67 883.554 1987.36 880.126 1987.08 876.427C1986.26 862.313 1973.66 851.626 1958.86 852.446C1951.73 852.859 1945.57 855.874 1941.04 860.396C1938.31 859.711 1935.29 859.298 1932.28 859.573C1917.48 860.396 1906.11 872.59 1906.93 886.704C1907.75 900.818 1920.36 911.508 1935.16 910.685C1936.39 910.55 1937.62 910.411 1938.85 910.275C1942.14 921.649 1953.38 929.731 1966.26 928.912Z" fill="#EFD35B"/>
<path d="M1753.2 923.977C1768 923.157 1779.37 910.96 1778.55 896.845C1778.27 891.09 1775.94 886.02 1772.38 881.908C1773.61 878.619 1774.3 875.194 1774.03 871.496C1773.2 857.381 1760.6 846.691 1745.8 847.514C1738.67 847.924 1732.51 850.939 1727.99 855.461C1725.25 854.777 1722.23 854.367 1719.22 854.641C1704.42 855.461 1693.05 867.658 1693.87 881.772C1694.69 895.887 1707.3 906.573 1722.1 905.753C1723.33 905.615 1724.56 905.479 1725.8 905.34C1729.08 916.715 1740.32 924.664 1753.2 923.977Z" fill="#EFD35B"/>
<path d="M1814.72 893.967C1829.51 893.147 1840.89 880.949 1840.06 866.835C1839.79 861.219 1837.46 856.01 1833.9 851.901C1835.13 848.612 1835.82 845.184 1835.54 841.485C1834.72 827.371 1822.12 816.684 1807.32 817.504C1800.2 817.917 1794.03 820.932 1789.51 825.454C1786.77 824.766 1783.75 824.356 1780.74 824.631C1765.94 825.454 1754.57 837.648 1755.39 851.762C1756.21 865.877 1768.82 876.566 1783.62 875.743C1784.85 875.605 1786.08 875.469 1787.32 875.333C1790.6 886.704 1801.84 894.789 1814.72 893.967Z" fill="#EFD35B"/>
<path d="M1944.61 878.893C1952.97 866.699 1950.36 850.255 1938.85 842.308C1934.19 839.019 1928.71 837.648 1923.37 838.061C1921.59 835.046 1919.26 832.442 1916.25 830.386C1904.6 822.3 1888.3 825.728 1879.94 837.922C1875.96 843.677 1874.46 850.529 1875.28 856.833C1872.95 858.614 1870.89 860.67 1869.25 863.136C1860.89 875.333 1863.49 891.775 1875.14 899.724C1886.79 907.809 1903.09 904.382 1911.45 892.188C1912.14 891.09 1912.82 890.132 1913.37 889.035C1924.06 893.421 1937.35 889.583 1944.61 878.893Z" fill="#EFD35B"/>
<path d="M1827.19 884.923C1828.97 870.263 1818.97 856.971 1804.99 855.19C1799.37 854.502 1793.89 855.874 1789.23 858.614C1786.22 856.833 1782.93 855.6 1779.37 855.19C1765.39 853.544 1752.51 864.095 1750.73 878.758C1749.91 885.746 1751.69 892.459 1755.39 897.804C1754.16 900.409 1753.34 903.285 1752.93 906.302C1751.14 920.962 1761.15 934.253 1775.12 936.035C1789.1 937.681 1801.98 927.13 1803.76 912.467C1803.89 911.234 1804.03 910.001 1803.89 908.768C1815.68 907.396 1825.68 897.804 1827.19 884.923Z" fill="#EFD35B"/>
<path d="M1790.06 906.438C1788.27 923.157 1799.78 937.955 1815.68 939.737C1822.12 940.421 1828.28 938.914 1833.35 935.625C1836.78 937.681 1840.48 938.914 1844.59 939.463C1860.48 941.106 1874.73 929.047 1876.51 912.331C1877.33 904.382 1875.14 896.845 1871.03 890.952C1872.4 887.937 1873.23 884.787 1873.64 881.362C1875.42 864.644 1863.91 849.845 1848.15 848.063C1832.26 846.417 1818.01 858.479 1816.23 875.195C1816.09 876.566 1816.09 878.074 1816.09 879.442C1802.66 880.814 1791.56 891.914 1790.06 906.438Z" fill="#F9E595"/>
<path d="M1925.84 906.987C1934.47 894.928 1932 878.484 1920.49 870.263C1915.83 866.974 1910.49 865.467 1905.01 865.741C1903.23 862.726 1900.9 860.122 1897.89 857.93C1886.38 849.706 1870.07 852.995 1861.44 865.054C1857.33 870.811 1855.82 877.525 1856.51 883.964C1854.18 885.61 1852.13 887.802 1850.34 890.268C1841.85 902.326 1844.18 918.771 1855.68 926.991C1867.2 935.215 1883.5 931.926 1892.13 919.868C1892.82 918.771 1893.5 917.812 1894.05 916.715C1905.01 921.237 1918.3 917.399 1925.84 906.987Z" fill="#EFD35B"/>
<path d="M1998.45 882.595C1997.5 881.634 1996.12 881.224 1994.76 881.498L1973.93 872.319L1950.77 890.816L1924.61 882.731L1904.33 900.683L1880.76 892.049L1859.66 910.137L1837.74 901.232L1813.35 920.003L1786.91 900.819L1767.17 910.275L1742.51 891.365L1721.55 900.544L1698.53 882.047L1676.2 890.952L1654.14 872.59L1632.08 881.498C1630.71 881.224 1629.34 881.634 1628.38 882.595C1627.42 883.554 1627.01 884.923 1627.15 886.294L1682.77 1220.24C1683.05 1221.74 1684.14 1222.98 1685.65 1223.52L1812.25 1262.17C1812.25 1262.17 1812.25 1262.17 1812.39 1262.17H1812.53C1812.66 1262.17 1812.8 1262.3 1812.94 1262.3C1813.07 1262.3 1813.21 1262.3 1813.35 1262.3H1813.48H1813.62C1813.76 1262.3 1813.89 1262.3 1814.03 1262.3C1814.17 1262.3 1814.31 1262.3 1814.44 1262.17H1814.58C1814.58 1262.17 1814.58 1262.17 1814.72 1262.17L1941.32 1223.52C1942.83 1223.11 1943.92 1221.74 1944.2 1220.24L1999.69 886.159C1999.83 884.923 1999.41 883.554 1998.45 882.595Z" fill="#E5DDD7"/>
<path d="M1641.26 887.666L1693.73 1221.61L1713.88 1227.77L1670.17 893.831L1655.37 879.168L1641.26 887.666Z" fill="#EA4949"/>
<path d="M1685.51 897.12L1724.56 1231.06L1744.57 1237.09L1714.42 903.285L1700.72 888.76L1685.51 897.12Z" fill="#EA4949"/>
<path d="M1729.77 906.438L1755.25 1240.38L1775.39 1246.55L1758.68 912.603L1742.38 897.668L1729.77 906.438Z" fill="#EA4949"/>
<path d="M1774.03 915.892L1786.08 1249.84L1806.08 1255.87L1802.94 922.06L1787.59 907.261L1774.03 915.892Z" fill="#EA4949"/>
<path d="M1825.13 921.785L1821.57 1255.59L1841.71 1249.42L1854.04 915.617L1837.74 907.535L1825.13 921.785Z" fill="#BF1717"/>
<path d="M1869.39 912.331L1852.26 1246.27L1872.4 1240.11L1898.3 906.163L1882.4 898.078L1869.39 912.331Z" fill="#BF1717"/>
<path d="M1913.64 902.875L1883.09 1236.82L1903.23 1230.65L1942.55 896.846L1926.8 888.625L1913.64 902.875Z" fill="#BF1717"/>
<path d="M1957.9 893.556L1913.78 1227.5L1933.92 1221.33L1986.81 887.392L1970.5 879.306L1957.9 893.556Z" fill="#BF1717"/>
<defs>
<linearGradient id="paint0_linear_102_29" x1="1920" y1="0" x2="1920" y2="2160" gradientUnits="userSpaceOnUse">
<stop stop-color="#2B2D42"/>
<stop offset="1" stop-color="#020412"/>
</linearGradient>
</defs>
</svg>
