<svg width="49" height="49" viewBox="0 0 49 49" fill="none" xmlns="http://www.w3.org/2000/svg">
<circle cx="24.5" cy="24.5" r="24.5" fill="black"/>
<path d="M18.3721 35.5003H13.3964V19.1433H18.3721V35.5003ZM15.8816 16.912C14.2905 16.912 13 15.5667 13 13.9425C13 13.1623 13.3036 12.4141 13.844 11.8624C14.3844 11.3108 15.1174 11.0009 15.8816 11.0009C16.6459 11.0009 17.3788 11.3108 17.9192 11.8624C18.4596 12.4141 18.7632 13.1623 18.7632 13.9425C18.7632 15.5667 17.4721 16.912 15.8816 16.912ZM36.9946 35.5003H32.0296V27.5378C32.0296 25.6402 31.9921 23.2066 29.4427 23.2066C26.8557 23.2066 26.4593 25.2683 26.4593 27.4011V35.5003H21.4889V19.1433H26.2611V21.3745H26.3307C26.995 20.0894 28.6177 18.7331 31.0386 18.7331C36.0743 18.7331 37 22.1183 37 26.5152V35.5003H36.9946Z" fill="white"/>
</svg>
