<svg width="49" height="49" viewBox="0 0 49 49" fill="none" xmlns="http://www.w3.org/2000/svg">
<circle cx="24.5" cy="24.5" r="24.5" fill="black"/>
<path d="M36.1218 19.297C36.1396 19.5457 36.1396 19.7945 36.1396 20.0432C36.1396 27.6294 30.3655 36.3706 19.8122 36.3706C16.5609 36.3706 13.5406 35.4289 11 33.7945C11.4619 33.8477 11.9061 33.8655 12.3858 33.8655C15.0685 33.8655 17.5381 32.9594 19.5101 31.4138C16.9873 31.3604 14.8731 29.7082 14.1446 27.434C14.5 27.4873 14.8553 27.5228 15.2284 27.5228C15.7436 27.5228 16.2589 27.4518 16.7386 27.3274C14.1091 26.7944 12.137 24.4848 12.137 21.6955V21.6244C12.9009 22.0508 13.7893 22.3173 14.7309 22.3528C13.1852 21.3223 12.1726 19.5635 12.1726 17.5736C12.1726 16.5076 12.4568 15.5305 12.9543 14.6777C15.7791 18.1599 20.0254 20.434 24.7867 20.6828C24.6979 20.2564 24.6446 19.8122 24.6446 19.3681C24.6446 16.2056 27.203 13.6295 30.3832 13.6295C32.0354 13.6295 33.5278 14.3224 34.5761 15.4417C35.873 15.1929 37.1166 14.7132 38.2182 14.0559C37.7917 15.3884 36.8857 16.5077 35.6953 17.2183C36.8502 17.094 37.9695 16.7741 38.9999 16.33C38.2183 17.467 37.2411 18.4797 36.1218 19.297V19.297Z" fill="white"/>
</svg>
