<svg width="32" height="32" viewBox="0 0 32 32" fill="none" xmlns="http://www.w3.org/2000/svg">
<rect width="32" height="32" rx="4" fill="white"/>
<path d="M9.05508 11.92L7.39508 17.02H10.6751L9.05508 11.92ZM3.43508 22V20.92L5.05508 20.68L9.11508 8.84H11.1751L15.2751 20.82L16.4951 20.96V22H10.3151V20.96L11.8551 20.76L11.0351 18.18H7.01508L6.21508 20.68L7.73508 20.92V22H3.43508ZM22.4326 10.02H21.6326C21.6192 10.8467 21.6059 11.6733 21.5926 12.5C21.5926 13.3133 21.5926 14.0933 21.5926 14.84H22.3526C23.0192 14.84 23.5392 14.7267 23.9126 14.5C24.2859 14.2733 24.5526 13.9733 24.7126 13.6C24.8726 13.2267 24.9526 12.8267 24.9526 12.4C24.9526 10.8133 24.1126 10.02 22.4326 10.02ZM16.7526 9.94V8.86H23.2526C24.8259 8.86 26.0326 9.15333 26.8726 9.74C27.7259 10.3267 28.1526 11.14 28.1526 12.18C28.1526 12.62 28.0392 13.06 27.8126 13.5C27.5859 13.9267 27.2126 14.3067 26.6926 14.64C26.1726 14.96 25.4659 15.1933 24.5726 15.34C25.3326 15.4333 25.9259 15.62 26.3526 15.9C26.7792 16.1667 27.0992 16.52 27.3126 16.96C27.5259 17.3867 27.6792 17.9133 27.7726 18.54L28.1526 20.76L29.6726 20.92V22C29.3526 22.0667 29.0859 22.12 28.8726 22.16C28.6592 22.2133 28.4459 22.2467 28.2326 22.26C28.0326 22.2733 27.7792 22.28 27.4726 22.28C26.6192 22.28 25.9459 22.1333 25.4526 21.84C24.9726 21.5467 24.6792 21.0133 24.5726 20.24L24.2126 17.92C24.1192 17.2533 23.9259 16.76 23.6326 16.44C23.3526 16.12 22.9126 15.96 22.3126 15.96H21.5926C21.5926 16.8133 21.5926 17.6333 21.5926 18.42C21.6059 19.2067 21.6192 19.9867 21.6326 20.76L23.1926 20.92V22H16.7526V20.92L18.2526 20.76C18.2792 19.9467 18.2926 19.1267 18.2926 18.3C18.2926 17.4733 18.2926 16.64 18.2926 15.8V15.06C18.2926 14.2333 18.2926 13.4067 18.2926 12.58C18.2926 11.74 18.2792 10.9133 18.2526 10.1L16.7526 9.94Z" fill="#030303"/>
</svg>
